<?xml version="1.0" encoding="UTF-8"?>
<svg version="1.1"
      xmlns="http://www.w3.org/2000/svg" width="382" height="132">
      <path d="M0 0 C126.06 0 252.12 0 382 0 C382 43.56 382 87.12 382 132 C255.94 132 129.88 132 0 132 C0 88.44 0 44.88 0 0 Z " fill="#565758" transform="translate(0,0)"/>
      <path d="M0 0 C126.06 0 252.12 0 382 0 C382 11.88 382 23.76 382 36 C255.94 36 129.88 36 0 36 C0 24.12 0 12.24 0 0 Z " fill="#717676" transform="translate(0,0)"/>
      <path d="M0 0 C28.71 0 57.42 0 87 0 C87 3.63 87 7.26 87 11 C81.72 11 76.44 11 71 11 C71 11.66 71 12.32 71 13 C68.87527424 13.05386629 66.75016348 13.09273071 64.625 13.125 C62.84996094 13.15980469 62.84996094 13.15980469 61.0390625 13.1953125 C58 13 58 13 56 11 C53.45151644 10.77496189 51.04736331 10.67559643 48.5 10.6875 C47.81035156 10.67138672 47.12070312 10.65527344 46.41015625 10.63867188 C44.16742349 10.60074325 44.16742349 10.60074325 41 11 C40.34 11.99 39.68 12.98 39 14 C54.84 14 70.68 14 87 14 C87 25.55 87 37.1 87 49 C58.29 49 29.58 49 0 49 C0 32.83 0 16.66 0 0 Z " fill="#555758" transform="translate(0,55)"/>
      <path d="M0 0 C1.09795647 0.00303635 1.09795647 0.00303635 2.21809387 0.00613403 C3.36929214 0.00350555 3.36929214 0.00350555 4.54374695 0.00082397 C7.09350309 -0.00359537 9.64319047 -0.00065598 12.19294739 0.00271606 C13.95792657 0.00204298 15.72290566 0.00107292 17.48788452 -0.00018311 C21.19272237 -0.00166025 24.89753616 0.00049474 28.60237122 0.00515747 C33.3585804 0.01085061 38.11473311 0.00757849 42.87094021 0.00158501 C46.5176842 -0.00202372 50.16441474 -0.00088051 53.81115913 0.0017128 C55.56509978 0.00238142 57.31904164 0.0015559 59.07298088 -0.00076675 C61.52242656 -0.00329791 63.97178008 0.00055408 66.42121887 0.00613403 C67.15116562 0.0041098 67.88111237 0.00208557 68.63317871 0 C73.65582657 0.02126503 73.65582657 0.02126503 75.88435364 1.13552856 C75.88435364 1.79552856 75.88435364 2.45552856 75.88435364 3.13552856 C79.86350523 3.1643984 83.84263017 3.18228263 87.82185364 3.19802856 C89.52631653 3.21059692 89.52631653 3.21059692 91.26521301 3.22341919 C92.34480286 3.22664185 93.4243927 3.2298645 94.53669739 3.23318481 C95.53692932 3.23842163 96.53716125 3.24365845 97.56770325 3.24905396 C99.84642591 3.39733951 99.84642591 3.39733951 100.88435364 2.13552856 C103.58090217 2.06233235 106.25126822 2.04310319 108.94685364 2.07302856 C109.70546692 2.07754028 110.4640802 2.082052 111.24568176 2.08670044 C113.12527235 2.09852176 115.00482263 2.11645779 116.88435364 2.13552856 C117.21435364 2.79552856 117.54435364 3.45552856 117.88435364 4.13552856 C119.90898619 4.78766148 119.90898619 4.78766148 121.88435364 5.13552856 C121.88435364 5.79552856 121.88435364 6.45552856 121.88435364 7.13552856 C108.68435364 7.13552856 95.48435364 7.13552856 81.88435364 7.13552856 C103.8754443 8.46832194 125.86200003 8.23023896 147.88435364 8.13552856 C147.88435364 11.10552856 147.88435364 14.07552856 147.88435364 17.13552856 C133.69435364 17.13552856 119.50435364 17.13552856 104.88435364 17.13552856 C105.99782959 18.47549789 105.99782959 18.47549789 108.84358215 18.24905396 C110.78382263 18.24119873 110.78382263 18.24119873 112.76325989 18.23318481 C113.44992233 18.23176987 114.13658478 18.23035492 114.84405518 18.22889709 C117.04503165 18.22328336 119.24590773 18.21072863 121.44685364 18.19802856 C122.93578446 18.19301533 124.42471688 18.18845212 125.91365051 18.18435669 C129.57058439 18.17330949 133.22745922 18.15603569 136.88435364 18.13552856 C136.88435364 18.46552856 136.88435364 18.79552856 136.88435364 19.13552856 C129.29435364 19.13552856 121.70435364 19.13552856 113.88435364 19.13552856 C113.88435364 19.79552856 113.88435364 20.45552856 113.88435364 21.13552856 C121.80435364 21.46552856 129.72435364 21.79552856 137.88435364 22.13552856 C137.88435364 22.46552856 137.88435364 22.79552856 137.88435364 23.13552856 C131.94435364 23.13552856 126.00435364 23.13552856 119.88435364 23.13552856 C119.88435364 23.79552856 119.88435364 24.45552856 119.88435364 25.13552856 C125.49435364 25.46552856 131.10435364 25.79552856 136.88435364 26.13552856 C136.88435364 26.46552856 136.88435364 26.79552856 136.88435364 27.13552856 C124.01435364 27.13552856 111.14435364 27.13552856 97.88435364 27.13552856 C97.55435364 26.47552856 97.22435364 25.81552856 96.88435364 25.13552856 C96.88435364 26.12552856 96.88435364 27.11552856 96.88435364 28.13552856 C104.80435364 28.13552856 112.72435364 28.13552856 120.88435364 28.13552856 C120.88435364 28.46552856 120.88435364 28.79552856 120.88435364 29.13552856 C101.74435364 29.13552856 82.60435364 29.13552856 62.88435364 29.13552856 C62.88435364 28.80552856 62.88435364 28.47552856 62.88435364 28.13552856 C53.97435364 27.80552856 45.06435364 27.47552856 35.88435364 27.13552856 C35.88435364 26.14552856 35.88435364 25.15552856 35.88435364 24.13552856 C15.09435364 23.80552856 -5.69564636 23.47552856 -27.11564636 23.13552856 C-27.11564636 22.80552856 -27.11564636 22.47552856 -27.11564636 22.13552856 C-32.39564636 21.80552856 -37.67564636 21.47552856 -43.11564636 21.13552856 C-43.11564636 20.80552856 -43.11564636 20.47552856 -43.11564636 20.13552856 C-39.15564636 19.64052856 -39.15564636 19.64052856 -35.11564636 19.13552856 C-35.11564636 17.48552856 -35.11564636 15.83552856 -35.11564636 14.13552856 C-37.75564636 13.80552856 -40.39564636 13.47552856 -43.11564636 13.13552856 C-43.11564636 11.48552856 -43.11564636 9.83552856 -43.11564636 8.13552856 C-43.44564636 8.46552856 -43.77564636 8.79552856 -44.11564636 9.13552856 C-44.11564636 9.79552856 -44.11564636 10.45552856 -44.11564636 11.13552856 C-53.68564636 11.13552856 -63.25564636 11.13552856 -73.11564636 11.13552856 C-73.11564636 8.13552856 -73.11564636 5.13552856 -73.11564636 2.13552856 C-72.40061951 2.14076538 -71.68559265 2.1460022 -70.94889832 2.15139771 C-54.89153411 2.25146332 -38.85522004 2.110012 -22.80314636 1.69802856 C-21.97561859 1.67838043 -21.14809082 1.6587323 -20.29548645 1.63848877 C-17.94759823 1.58169891 -15.60000704 1.51805206 -13.25236511 1.45193481 C-12.54333038 1.43521729 -11.83429565 1.41849976 -11.10377502 1.40127563 C-6.99634771 1.27427156 -4.1259583 0.01754287 0 0 Z M62.88435364 25.13552856 C62.88435364 25.46552856 62.88435364 25.79552856 62.88435364 26.13552856 C69.79942243 27.26845852 76.40184459 27.0613529 83.38435364 26.69802856 C85.04724426 26.61971802 85.04724426 26.61971802 86.74372864 26.53982544 C89.45762567 26.41114929 92.17105821 26.2762345 94.88435364 26.13552856 C94.88435364 25.80552856 94.88435364 25.47552856 94.88435364 25.13552856 C84.32435364 25.13552856 73.76435364 25.13552856 62.88435364 25.13552856 Z " fill="#4F5051" transform="translate(234.1156463623047,80.86447143554688)"/>
      <path d="M0 0 C5.28 0 10.56 0 16 0 C16 1.65 16 3.3 16 5 C20.29 5 24.58 5 29 5 C29.33 4.01 29.66 3.02 30 2 C34.62 2 39.24 2 44 2 C46 6 46 6 46 7 C48.31 7.33 50.62 7.66 53 8 C53 10.97 53 13.94 53 17 C80.72 17.33 108.44 17.66 137 18 C136.67 18.99 136.34 19.98 136 21 C138.64 21.33 141.28 21.66 144 22 C144 22.33 144 22.66 144 23 C152.91 23 161.82 23 171 23 C171 22.01 171 21.02 171 20 C175.62 20 180.24 20 185 20 C185 20.33 185 20.66 185 21 C187.64 21 190.28 21 193 21 C193.33 20.01 193.66 19.02 194 18 C191.69 17.67 189.38 17.34 187 17 C187.33 16.01 187.66 15.02 188 14 C187.01 14.33 186.02 14.66 185 15 C182.77181559 15.06937062 180.54165476 15.08457084 178.3125 15.0625 C176.54326172 15.04896484 176.54326172 15.04896484 174.73828125 15.03515625 C173.83464844 15.02355469 172.93101562 15.01195313 172 15 C172 14.67 172 14.34 172 14 C174.31 14 176.62 14 179 14 C179 13.34 179 12.68 179 12 C193.19 12 207.38 12 222 12 C222 20.91 222 29.82 222 39 C206.16 39.33 190.32 39.66 174 40 C174 40.66 174 41.32 174 42 C134.07 42 94.14 42 53 42 C52.505 42.99 52.505 42.99 52 44 C47.05 43.67 42.1 43.34 37 43 C37 42.67 37 42.34 37 42 C42.94 41.505 42.94 41.505 49 41 C49.33 40.01 49.66 39.02 50 38 C52.81256281 37.97315688 55.62487241 37.95323812 58.4375 37.9375 C59.64116211 37.92493164 59.64116211 37.92493164 60.86914062 37.91210938 C62.91295221 37.9034857 64.95683902 37.9477185 67 38 C67.33 38.33 67.66 38.66 68 39 C69.90160112 39.12350658 71.8077239 39.17793443 73.71313477 39.20532227 C74.9343251 39.22526749 76.15551544 39.24521271 77.41371155 39.26576233 C78.75627513 39.28274791 80.09884007 39.29962667 81.44140625 39.31640625 C82.80761861 39.33696947 84.17382451 39.35796577 85.5400238 39.37937927 C89.14194524 39.43466535 92.74392471 39.48404563 96.34594727 39.53222656 C100.01909572 39.58239403 103.69215955 39.63810485 107.36523438 39.69335938 C114.57675132 39.80102082 121.78833847 39.90244787 129 40 C129 39.34 129 38.68 129 38 C129.99 37.34 130.98 36.68 132 36 C132.33 35.34 132.66 34.68 133 34 C135.43359375 33.62109375 135.43359375 33.62109375 138.4375 33.4375 C142.36535217 33.26890634 142.36535217 33.26890634 146 32 C146 31.34 146 30.68 146 30 C142.04 30 138.08 30 134 30 C134 30.33 134 30.66 134 31 C127.4 31 120.8 31 114 31 C114 30.67 114 30.34 114 30 C116.64 30 119.28 30 122 30 C122 29.34 122 28.68 122 28 C132.56 27.67 143.12 27.34 154 27 C154 26.67 154 26.34 154 26 C140.14 25.505 140.14 25.505 126 25 C126 24.34 126 23.68 126 23 C123.52039864 23.14024219 121.04147598 23.2869185 118.5625 23.4375 C117.85544922 23.47681641 117.14839844 23.51613281 116.41992188 23.55664062 C112.91309581 23.47624438 112.91309581 23.47624438 110 25 C108.31391034 25.07205511 106.62499341 25.08386068 104.9375 25.0625 C104.01839844 25.05347656 103.09929687 25.04445313 102.15234375 25.03515625 C101.44207031 25.02355469 100.73179687 25.01195313 100 25 C100 24.67 100 24.34 100 24 C89.44 24 78.88 24 68 24 C68.33 22.35 68.66 20.7 69 19 C65.20710763 19.27696396 61.41605868 19.57405103 57.625 19.875 C56.00464844 19.99294922 56.00464844 19.99294922 54.3515625 20.11328125 C52.8046875 20.23896484 52.8046875 20.23896484 51.2265625 20.3671875 C49.79691162 20.47716064 49.79691162 20.47716064 48.33837891 20.58935547 C45.81549808 20.80173834 45.81549808 20.80173834 44 23 C44.66 23.33 45.32 23.66 46 24 C46.495 22.515 46.495 22.515 47 21 C49.31 21 51.62 21 54 21 C54 22.32 54 23.64 54 25 C60.93 25.495 60.93 25.495 68 26 C67.67 26.66 67.34 27.32 67 28 C54.79 28 42.58 28 30 28 C29.11718776 23.58593878 28.8825675 19.63800455 28.9375 15.1875 C28.958125 12.815625 28.97875 10.44375 29 8 C19.43 8 9.86 8 0 8 C-1 3 -1 3 0 0 Z M137 20 C147.56 20 158.12 20 169 20 C169 20.33 169 20.66 169 21 C164.97962032 21.19820989 160.95869488 21.3816467 156.9375 21.5625 C155.80376953 21.61857422 154.67003906 21.67464844 153.50195312 21.73242188 C147.84433079 21.97983976 142.56706777 22.09078977 137 21 C137 20.67 137 20.34 137 20 Z " fill="#000000" transform="translate(160,86)"/>
      <path d="M0 0 C0 1.32 0 2.64 0 4 C10.56 4 21.12 4 32 4 C32 4.33 32 4.66 32 5 C33.47906892 5.02689216 34.95827483 5.04634621 36.4375 5.0625 C37.67306641 5.07990234 37.67306641 5.07990234 38.93359375 5.09765625 C40.99163938 5.23267348 40.99163938 5.23267348 42 4 C44.53049402 3.92686433 47.03304837 3.90752473 49.5625 3.9375 C50.62887695 3.94426758 50.62887695 3.94426758 51.71679688 3.95117188 C53.47790013 3.96299136 55.23896036 3.98092737 57 4 C57 4.66 57 5.32 57 6 C66.57 6 76.14 6 86 6 C86.33 6.99 86.66 7.98 87 9 C75.78 9 64.56 9 53 9 C54.15668501 10.38421065 54.15668501 10.38421065 57.32641602 10.11352539 C58.80225556 10.11336629 60.27810069 10.10767314 61.75390625 10.09765625 C62.52935287 10.0962413 63.3047995 10.09482635 64.10374451 10.09336853 C66.59003494 10.08775345 69.0762366 10.07519846 71.5625 10.0625 C73.24413933 10.05748694 74.92578006 10.0529237 76.60742188 10.04882812 C80.73831566 10.03777913 84.86914276 10.02050445 89 10 C89 10.33 89 10.66 89 11 C85.04 11 81.08 11 77 11 C77 11.66 77 12.32 77 13 C90.86 13.33 104.72 13.66 119 14 C119.99 16.475 119.99 16.475 121 19 C100.87 19 80.74 19 60 19 C60 19.66 60 20.32 60 21 C52.06386213 21.02312764 44.12773824 21.04091723 36.19157505 21.05181217 C32.50685502 21.05704008 28.82215797 21.06413605 25.13745117 21.07543945 C21.58429169 21.08627162 18.03115437 21.09227753 14.47797966 21.09487724 C13.11954334 21.0967309 11.76110829 21.10035038 10.40268135 21.10573006 C8.50617777 21.11294475 6.60965207 21.11340809 4.71313477 21.11352539 C3.09097801 21.11685631 3.09097801 21.11685631 1.43605042 21.12025452 C-1 21 -1 21 -2 20 C-4.85877909 19.76298761 -7.69883297 19.57780818 -10.5625 19.4375 C-11.36880859 19.39431641 -12.17511719 19.35113281 -13.00585938 19.30664062 C-15.00368805 19.20024738 -17.0018207 19.09959112 -19 19 C-18.34 20.98 -17.68 22.96 -17 25 C-33.83 25 -50.66 25 -68 25 C-68 24.67 -68 24.34 -68 24 C-62.72 23.67 -57.44 23.34 -52 23 C-52 20.69 -52 18.38 -52 16 C-46.06 15.505 -46.06 15.505 -40 15 C-40 14.67 -40 14.34 -40 14 C-43.96 13.67 -47.92 13.34 -52 13 C-52 12.01 -52 11.02 -52 10 C-51.07316406 9.93941406 -50.14632812 9.87882812 -49.19140625 9.81640625 C-47.99386719 9.73261719 -46.79632813 9.64882812 -45.5625 9.5625 C-43.77005859 9.44068359 -43.77005859 9.44068359 -41.94140625 9.31640625 C-39.11429756 9.32343886 -39.11429756 9.32343886 -38 8 C-35.34540331 7.92380607 -32.71657851 7.90923301 -30.0625 7.9375 C-29.267229 7.94128662 -28.47195801 7.94507324 -27.65258789 7.94897461 C-24.23545205 7.96540154 -20.81843347 7.99354111 -17.40136719 8.02050781 C-14.91341699 8.03850212 -12.42548579 8.05065365 -9.9375 8.0625 C-9.15834229 8.07079834 -8.37918457 8.07909668 -7.57641602 8.08764648 C-5.7174008 8.09620568 -3.85826962 8.05333725 -2 8 C-1.67 7.67 -1.34 7.34 -1 7 C-13.21 7 -25.42 7 -38 7 C-38 6.67 -38 6.34 -38 6 C-30.41 6 -22.82 6 -15 6 C-15 4.68 -15 3.36 -15 2 C-17.3431213 2.25561323 -19.67843403 2.59270772 -22 3 C-22.33 3.66 -22.66 4.32 -23 5 C-27.95 5 -32.9 5 -38 5 C-38 4.01 -38 3.02 -38 2 C-12.23623663 -0.38776806 -12.23623663 -0.38776806 0 0 Z M-39 19 C-38.67 19.66 -38.34 20.32 -38 21 C-32.06 20.67 -26.12 20.34 -20 20 C-20 19.67 -20 19.34 -20 19 C-26.27 19 -32.54 19 -39 19 Z " fill="#4B4C4E" transform="translate(229,105)"/>
      <path d="M0 0 C3.96 0 7.92 0 12 0 C12 0.33 12 0.66 12 1 C12.69095261 0.99738159 13.38190521 0.99476318 14.09379578 0.99206543 C34.23876756 0.92711248 54.37153557 1.14175373 74.51348877 1.46356201 C78.42368071 1.52553628 82.33391235 1.58490121 86.24414062 1.64453125 C93.82946656 1.7605675 101.4147462 1.87933047 109 2 C109 2.33 109 2.66 109 3 C115.27 3.33 121.54 3.66 128 4 C128 3.34 128 2.68 128 2 C135.26 2 142.52 2 150 2 C150 2.33 150 2.66 150 3 C156.27 3.33 162.54 3.66 169 4 C169 3.34 169 2.68 169 2 C174.28 2 179.56 2 185 2 C185 6.29 185 10.58 185 15 C178.99437496 15.17098003 172.98857999 15.33107644 166.98242188 15.48217773 C164.95012083 15.53470971 162.91788722 15.58993765 160.88574219 15.64819336 C146.53482403 16.05710208 132.33258029 15.84459534 118 15 C118.33 14.34 118.66 13.68 119 13 C132.37640574 12.87757443 145.65324871 13.07726164 159 14 C159 13.34 159 12.68 159 12 C156.69 11.67 154.38 11.34 152 11 C152 10.67 152 10.34 152 10 C149.68756208 9.97314588 147.3750373 9.95367159 145.0625 9.9375 C143.13083984 9.92009766 143.13083984 9.92009766 141.16015625 9.90234375 C138.13701597 9.63467451 138.13701597 9.63467451 137 11 C135.07332493 11.08748207 133.14348139 11.10697334 131.21484375 11.09765625 C130.04501953 11.09443359 128.87519531 11.09121094 127.66992188 11.08789062 C126.43822266 11.07951172 125.20652344 11.07113281 123.9375 11.0625 C122.08415039 11.05573242 122.08415039 11.05573242 120.19335938 11.04882812 C117.12885883 11.03699608 114.06445279 11.02051173 111 11 C111.66 10.67 112.32 10.34 113 10 C113 9.34 113 8.68 113 8 C102.45618688 7.97687657 91.91237975 7.95908491 81.36854649 7.94818783 C76.47314626 7.942959 71.57776332 7.93586136 66.68237305 7.92456055 C61.96212022 7.91373166 57.24188408 7.90772316 52.5216198 7.90512276 C50.71661046 7.90326851 48.91160208 7.89964791 47.10659981 7.89426994 C44.58740356 7.88705948 42.0682771 7.88600906 39.54907227 7.88647461 C38.41835045 7.8810817 38.41835045 7.8810817 37.26478577 7.87557983 C33.84445769 7.57440464 33.84445769 7.57440464 31 9 C28.54071771 9.16154467 26.10697776 9.26008492 23.64453125 9.31640625 C22.88280106 9.33723267 22.12107086 9.35805908 21.33625793 9.3795166 C18.82844526 9.44598939 16.32052481 9.50462433 13.8125 9.5625 C12.5391983 9.59426834 12.5391983 9.59426834 11.24017334 9.62667847 C-4.84209309 10.02734143 -20.91311038 10.11868874 -37 10 C-37.79953138 6.71303767 -38.09658936 5.28976808 -37 2 C-30.4 2 -23.8 2 -17 2 C-17 2.66 -17 3.32 -17 4 C-9.08 3.505 -9.08 3.505 -1 3 C-0.67 2.01 -0.34 1.02 0 0 Z " fill="#424345" transform="translate(197,74)"/>
      <path d="M0 0 C5.28 0 10.56 0 16 0 C16 1.65 16 3.3 16 5 C20.29 5 24.58 5 29 5 C29.33 4.01 29.66 3.02 30 2 C34.62 2 39.24 2 44 2 C46 6 46 6 46 7 C48.31 7.33 50.62 7.66 53 8 C53 10.97 53 13.94 53 17 C80.72 17.33 108.44 17.66 137 18 C136.67 18.99 136.34 19.98 136 21 C138.64 21.33 141.28 21.66 144 22 C144 22.33 144 22.66 144 23 C160.83 23.33 177.66 23.66 195 24 C195 24.33 195 24.66 195 25 C193.94039062 25.03738281 192.88078125 25.07476562 191.7890625 25.11328125 C190.40100576 25.17893258 189.01298651 25.24538021 187.625 25.3125 C186.92632812 25.33505859 186.22765625 25.35761719 185.5078125 25.38085938 C183.22711059 25.46984296 183.22711059 25.46984296 180 26 C179.01 27.485 179.01 27.485 178 29 C178.33 28.67 178.66 28.34 179 28 C180.4887186 27.91330568 181.981445 27.89296506 183.47265625 27.90234375 C184.37177734 27.90556641 185.27089844 27.90878906 186.19726562 27.91210938 C187.14279297 27.92048828 188.08832031 27.92886719 189.0625 27.9375 C190.4865918 27.94426758 190.4865918 27.94426758 191.93945312 27.95117188 C194.29303065 27.9629989 196.64648477 27.97947975 199 28 C198.67 28.99 198.34 29.98 198 31 C194.7 31.33 191.4 31.66 188 32 C188 32.33 188 32.66 188 33 C173.48 33 158.96 33 144 33 C144.66 32.67 145.32 32.34 146 32 C146 31.34 146 30.68 146 30 C142.04 30 138.08 30 134 30 C134 30.33 134 30.66 134 31 C127.4 31 120.8 31 114 31 C114 30.67 114 30.34 114 30 C116.64 30 119.28 30 122 30 C122 29.34 122 28.68 122 28 C132.56 27.67 143.12 27.34 154 27 C154 26.67 154 26.34 154 26 C140.14 25.505 140.14 25.505 126 25 C126 24.34 126 23.68 126 23 C123.52039864 23.14024219 121.04147598 23.2869185 118.5625 23.4375 C117.85544922 23.47681641 117.14839844 23.51613281 116.41992188 23.55664062 C112.91309581 23.47624438 112.91309581 23.47624438 110 25 C108.31391034 25.07205511 106.62499341 25.08386068 104.9375 25.0625 C104.01839844 25.05347656 103.09929687 25.04445313 102.15234375 25.03515625 C101.44207031 25.02355469 100.73179687 25.01195313 100 25 C100 24.67 100 24.34 100 24 C89.44 24 78.88 24 68 24 C68.33 22.35 68.66 20.7 69 19 C65.20710763 19.27696396 61.41605868 19.57405103 57.625 19.875 C56.00464844 19.99294922 56.00464844 19.99294922 54.3515625 20.11328125 C52.8046875 20.23896484 52.8046875 20.23896484 51.2265625 20.3671875 C49.79691162 20.47716064 49.79691162 20.47716064 48.33837891 20.58935547 C45.81549808 20.80173834 45.81549808 20.80173834 44 23 C44.66 23.33 45.32 23.66 46 24 C46.495 22.515 46.495 22.515 47 21 C49.31 21 51.62 21 54 21 C54 22.32 54 23.64 54 25 C60.93 25.495 60.93 25.495 68 26 C67.67 26.66 67.34 27.32 67 28 C54.79 28 42.58 28 30 28 C29.11718776 23.58593878 28.8825675 19.63800455 28.9375 15.1875 C28.958125 12.815625 28.97875 10.44375 29 8 C19.43 8 9.86 8 0 8 C-1 3 -1 3 0 0 Z M137 20 C147.56 20 158.12 20 169 20 C169 20.33 169 20.66 169 21 C164.97962032 21.19820989 160.95869488 21.3816467 156.9375 21.5625 C155.80376953 21.61857422 154.67003906 21.67464844 153.50195312 21.73242188 C147.84433079 21.97983976 142.56706777 22.09078977 137 21 C137 20.67 137 20.34 137 20 Z " fill="#3F4041" transform="translate(160,86)"/>
      <path d="M0 0 C23.43 0 46.86 0 71 0 C71 2.31 71 4.62 71 7 C-55.06 7 -181.12 7 -311 7 C-311 6.67 -311 6.34 -311 6 C-241.04 5.67 -171.08 5.34 -99 5 C-99 4.01 -99 3.02 -99 2 C-83.38848712 1.97666156 -67.77697894 1.95901617 -52.16545296 1.94818783 C-44.91709943 1.94302689 -37.66875673 1.93598801 -30.42041016 1.92456055 C-24.10431724 1.91460757 -17.78823215 1.9081451 -11.47213161 1.90591151 C-8.12640149 1.90460545 -4.7806938 1.90152618 -1.43497086 1.89426994 C2.29580793 1.88705489 6.02653962 1.88600926 9.75732422 1.88647461 C11.42967133 1.8810817 11.42967133 1.8810817 13.13580322 1.87557983 C14.65447495 1.87764183 14.65447495 1.87764183 16.2038269 1.87974548 C17.08690458 1.87882369 17.96998226 1.8779019 18.87981987 1.87695217 C21 2 21 2 23 3 C23 2.34 23 1.68 23 1 C15.41 1 7.82 1 0 1 C0 0.67 0 0.34 0 0 Z " fill="#808182" transform="translate(311,125)"/>
      <path d="M0 0 C1.09795647 0.00303635 1.09795647 0.00303635 2.21809387 0.00613403 C3.36929214 0.00350555 3.36929214 0.00350555 4.54374695 0.00082397 C7.09350309 -0.00359537 9.64319047 -0.00065598 12.19294739 0.00271606 C13.95792657 0.00204298 15.72290566 0.00107292 17.48788452 -0.00018311 C21.19272237 -0.00166025 24.89753616 0.00049474 28.60237122 0.00515747 C33.3585804 0.01085061 38.11473311 0.00757849 42.87094021 0.00158501 C46.5176842 -0.00202372 50.16441474 -0.00088051 53.81115913 0.0017128 C55.56509978 0.00238142 57.31904164 0.0015559 59.07298088 -0.00076675 C61.52242656 -0.00329791 63.97178008 0.00055408 66.42121887 0.00613403 C67.15116562 0.0041098 67.88111237 0.00208557 68.63317871 0 C73.65582657 0.02126503 73.65582657 0.02126503 75.88435364 1.13552856 C75.88435364 1.79552856 75.88435364 2.45552856 75.88435364 3.13552856 C79.86350523 3.1643984 83.84263017 3.18228263 87.82185364 3.19802856 C89.52631653 3.21059692 89.52631653 3.21059692 91.26521301 3.22341919 C92.34480286 3.22664185 93.4243927 3.2298645 94.53669739 3.23318481 C95.53692932 3.23842163 96.53716125 3.24365845 97.56770325 3.24905396 C99.84642591 3.39733951 99.84642591 3.39733951 100.88435364 2.13552856 C103.58090217 2.06233235 106.25126822 2.04310319 108.94685364 2.07302856 C109.70546692 2.07754028 110.4640802 2.082052 111.24568176 2.08670044 C113.12527235 2.09852176 115.00482263 2.11645779 116.88435364 2.13552856 C117.21435364 2.79552856 117.54435364 3.45552856 117.88435364 4.13552856 C119.90898619 4.78766148 119.90898619 4.78766148 121.88435364 5.13552856 C121.88435364 5.79552856 121.88435364 6.45552856 121.88435364 7.13552856 C108.68435364 7.13552856 95.48435364 7.13552856 81.88435364 7.13552856 C81.88435364 7.79552856 81.88435364 8.45552856 81.88435364 9.13552856 C72.11165939 9.18239388 62.33900532 9.21766741 52.56622219 9.23915291 C48.02565915 9.249478 43.48517438 9.2634238 38.94465637 9.28640747 C-11.91117812 9.53701798 -11.91117812 9.53701798 -22.11564636 6.13552856 C-23.81431824 5.98774921 -25.51742125 5.8880579 -27.22111511 5.81912231 C-28.20402527 5.77722778 -29.18693542 5.73533325 -30.19963074 5.69216919 C-31.22379089 5.65285278 -32.24795105 5.61353638 -33.30314636 5.57302856 C-34.33890808 5.52984497 -35.3746698 5.48666138 -36.44181824 5.44216919 C-38.99962826 5.3360849 -41.55753481 5.2340271 -44.11564636 5.13552856 C-44.11564636 5.79552856 -44.11564636 6.45552856 -44.11564636 7.13552856 C-48.40564636 7.13552856 -52.69564636 7.13552856 -57.11564636 7.13552856 C-57.11564636 6.14552856 -57.11564636 5.15552856 -57.11564636 4.13552856 C-56.18881042 4.07494263 -55.26197449 4.01435669 -54.30705261 3.95193481 C-53.10951355 3.86814575 -51.91197449 3.78435669 -50.67814636 3.69802856 C-48.88570496 3.57621216 -48.88570496 3.57621216 -47.05705261 3.45193481 C-44.22994392 3.45896743 -44.22994392 3.45896743 -43.11564636 2.13552856 C-40.39028631 1.9877589 -37.68702345 1.90050488 -34.95939636 1.85427856 C-33.7331958 1.82666443 -33.7331958 1.82666443 -32.48222351 1.79849243 C-28.96970652 1.71954252 -25.45698961 1.65198328 -21.94425964 1.58328247 C-19.38670528 1.53166732 -16.82932192 1.47437199 -14.27189636 1.41677856 C-13.07034912 1.39641541 -13.07034912 1.39641541 -11.8445282 1.37564087 C-7.46970794 1.2764684 -4.32564881 0.01839192 0 0 Z " fill="#58595A" transform="translate(234.1156463623047,80.86447143554688)"/>
      <path d="M0 0 C11.55 0 23.1 0 35 0 C35 0.33 35 0.66 35 1 C31.04 1 27.08 1 23 1 C23 1.66 23 2.32 23 3 C36.86 3.33 50.72 3.66 65 4 C65.99 6.475 65.99 6.475 67 9 C46.87 9 26.74 9 6 9 C6 9.66 6 10.32 6 11 C-1.93613787 11.02312764 -9.87226176 11.04091723 -17.80842495 11.05181217 C-21.49314498 11.05704008 -25.17784203 11.06413605 -28.86254883 11.07543945 C-32.41570831 11.08627162 -35.96884563 11.09227753 -39.52202034 11.09487724 C-40.88045666 11.0967309 -42.23889171 11.10035038 -43.59731865 11.10573006 C-45.49382223 11.11294475 -47.39034793 11.11340809 -49.28686523 11.11352539 C-50.90902199 11.11685631 -50.90902199 11.11685631 -52.56394958 11.12025452 C-55 11 -55 11 -56 10 C-58.85877909 9.76298761 -61.69883297 9.57780818 -64.5625 9.4375 C-65.77196289 9.37272461 -65.77196289 9.37272461 -67.00585938 9.30664062 C-69.00368805 9.20024738 -71.0018207 9.09959112 -73 9 C-72.34 10.98 -71.68 12.96 -71 15 C-87.83 15 -104.66 15 -122 15 C-122 14.67 -122 14.34 -122 14 C-114.08 13.505 -114.08 13.505 -106 13 C-106 10.69 -106 8.38 -106 6 C-102.52147832 5.65970492 -99.04210091 5.3290613 -95.5625 5 C-94.58861328 4.90460938 -93.61472656 4.80921875 -92.61132812 4.7109375 C-86.70951151 4.15825902 -80.92744322 3.90192441 -75 4 C-75 4.66 -75 5.32 -75 6 C-56.52 5.67 -38.04 5.34 -19 5 C-19 4.67 -19 4.34 -19 4 C-4.645 3.505 -4.645 3.505 10 3 C10.33 2.34 10.66 1.68 11 1 C7.37 1 3.74 1 0 1 C0 0.67 0 0.34 0 0 Z M-93 9 C-92.67 9.66 -92.34 10.32 -92 11 C-86.06 10.67 -80.12 10.34 -74 10 C-74 9.67 -74 9.34 -74 9 C-80.27 9 -86.54 9 -93 9 Z " fill="#505254" transform="translate(283,115)"/>
      <path d="M0 0 C9.24 0 18.48 0 28 0 C28 0.66 28 1.32 28 2 C32.29 2 36.58 2 41 2 C41 1.34 41 0.68 41 0 C45.29 0 49.58 0 54 0 C54 2.31 54 4.62 54 7 C51.36 7 48.72 7 46 7 C46 6.34 46 5.68 46 5 C38.08 5 30.16 5 22 5 C22 5.66 22 6.32 22 7 C14.37663455 7.11590535 6.75336056 7.20472069 -0.87068558 7.25906086 C-4.41101476 7.28514349 -7.95074069 7.32051425 -11.49072266 7.37719727 C-15.56158195 7.44197206 -19.63180872 7.4661911 -23.703125 7.48828125 C-24.97303284 7.51408768 -26.24294067 7.5398941 -27.55133057 7.56648254 C-29.32271393 7.56704903 -29.32271393 7.56704903 -31.12988281 7.56762695 C-32.16912903 7.57873001 -33.20837524 7.58983307 -34.27911377 7.60127258 C-37 7 -37 7 -41 2 C-27.47 2 -13.94 2 0 2 C0 1.34 0 0.68 0 0 Z M-167 6 C-124.76 6 -82.52 6 -39 6 C-39 6.66 -39 7.32 -39 8 C-10.95 7.67 17.1 7.34 46 7 C46.33 7.66 46.66 8.32 47 9 C-23.95 9 -94.9 9 -168 9 C-167.67 8.01 -167.34 7.02 -167 6 Z " fill="#6C7073" transform="translate(328,37)"/>
      <path d="M0 0 C126.06 0 252.12 0 382 0 C382 0.33 382 0.66 382 1 C377.71 1 373.42 1 369 1 C369 1.66 369 2.32 369 3 C364.71 3 360.42 3 356 3 C356 2.34 356 1.68 356 1 C346.76 1 337.52 1 328 1 C328 1.66 328 2.32 328 3 C328.99 3.66 329.98 4.32 331 5 C330.67 5.66 330.34 6.32 330 7 C336.6 7.33 343.2 7.66 350 8 C350 7.34 350 6.68 350 6 C357.92 6 365.84 6 374 6 C374 6.66 374 7.32 374 8 C370.88240889 9.55879555 367.57485514 9.12952133 364.15380859 9.11352539 C363.34397018 9.11367142 362.53413177 9.11381744 361.69975281 9.1139679 C359.01595404 9.11326977 356.33222419 9.10548204 353.6484375 9.09765625 C351.79041583 9.09579171 349.93239367 9.09436798 348.07437134 9.09336853 C343.17857512 9.08954615 338.28280845 9.07971823 333.38702393 9.06866455 C328.39343669 9.05844444 323.39984468 9.05386962 318.40625 9.04882812 C308.60415366 9.03809573 298.80207929 9.02102264 289 9 C289 8.34 289 7.68 289 7 C287.17291252 7.1065818 287.17291252 7.1065818 285.30891418 7.21531677 C270.97260824 8.00216685 256.67920161 8.13120854 242.32421875 8.09765625 C239.93284637 8.09578545 237.54147361 8.09436469 235.15010071 8.09336853 C228.93117162 8.0895954 222.71226682 8.07981119 216.49334717 8.06866455 C210.11731291 8.05833692 203.74127463 8.05384687 197.36523438 8.04882812 C184.91014573 8.03818291 172.4550749 8.02117108 160 8 C160 7.34 160 6.68 160 6 C200.92 5.67 241.84 5.34 284 5 C284.33 4.01 284.66 3.02 285 2 C190.95 1.67 96.9 1.34 0 1 C0 0.67 0 0.34 0 0 Z " fill="#010101" transform="translate(0,36)"/>
      <path d="M0 0 C1.08330345 0.01441132 1.08330345 0.01441132 2.18849182 0.02911377 C4.57473558 0.06208501 6.96079519 0.1024244 9.34692383 0.14282227 C11.00172782 0.16712522 12.65653861 0.19096869 14.31135559 0.21437073 C18.66632848 0.27719422 23.02118082 0.34626579 27.3760376 0.41662598 C31.82005322 0.48732507 36.26415429 0.55213261 40.70825195 0.61743164 C49.42774761 0.74642163 58.14712475 0.88201049 66.86645508 1.02172852 C66.86645508 2.01172852 66.86645508 3.00172852 66.86645508 4.02172852 C69.50645508 4.35172852 72.14645508 4.68172852 74.86645508 5.02172852 C74.86645508 4.36172852 74.86645508 3.70172852 74.86645508 3.02172852 C84.10645508 3.02172852 93.34645508 3.02172852 102.86645508 3.02172852 C103.19645508 4.01172852 103.52645508 5.00172852 103.86645508 6.02172852 C106.50645508 6.35172852 109.14645508 6.68172852 111.86645508 7.02172852 C111.86645508 8.01172852 111.86645508 9.00172852 111.86645508 10.02172852 C74.79150661 11.11686625 37.73178279 11.14729803 0.64511657 11.09375513 C-7.42583325 11.0823171 -15.49678422 11.07701483 -23.5677402 11.07205212 C-40.08968463 11.06176449 -56.61161262 11.04432579 -73.13354492 11.02172852 C-73.13354492 10.36172852 -73.13354492 9.70172852 -73.13354492 9.02172852 C-59.93354492 9.02172852 -46.73354492 9.02172852 -33.13354492 9.02172852 C-33.13354492 8.36172852 -33.13354492 7.70172852 -33.13354492 7.02172852 C-27.85354492 7.02172852 -22.57354492 7.02172852 -17.13354492 7.02172852 C-17.13354492 7.35172852 -17.13354492 7.68172852 -17.13354492 8.02172852 C-5.25354492 8.35172852 6.62645508 8.68172852 18.86645508 9.02172852 C18.86645508 8.03172852 18.86645508 7.04172852 18.86645508 6.02172852 C16.22021224 6.16194657 13.5746093 6.30862628 10.92895508 6.45922852 C9.79683594 6.51820312 9.79683594 6.51820312 8.6418457 6.57836914 C4.9470132 6.46210876 4.9470132 6.46210876 1.86645508 8.02172852 C-0.99622059 8.0949802 -3.83426392 8.11411057 -6.69604492 8.08422852 C-7.50235352 8.0797168 -8.30866211 8.07520508 -9.1394043 8.07055664 C-11.13748248 8.05873369 -13.13552275 8.04079766 -15.13354492 8.02172852 C-14.80354492 7.03172852 -14.47354492 6.04172852 -14.13354492 5.02172852 C-1.26354492 4.69172852 11.60645508 4.36172852 24.86645508 4.02172852 C24.86645508 3.69172852 24.86645508 3.36172852 24.86645508 3.02172852 C13.31645508 3.02172852 1.76645508 3.02172852 -10.13354492 3.02172852 C-10.13354492 2.36172852 -10.13354492 1.70172852 -10.13354492 1.02172852 C-6.55609761 -0.17075392 -3.77671127 -0.05770866 0 0 Z M-17.13354492 3.02172852 C-14.82354492 3.02172852 -12.51354492 3.02172852 -10.13354492 3.02172852 C-10.13354492 3.35172852 -10.13354492 3.68172852 -10.13354492 4.02172852 C-12.44354492 4.35172852 -14.75354492 4.68172852 -17.13354492 5.02172852 C-17.13354492 4.36172852 -17.13354492 3.70172852 -17.13354492 3.02172852 Z " fill="#1C1E1F" transform="translate(193.133544921875,60.978271484375)"/>
      <path d="M0 0 C7.26 0 14.52 0 22 0 C22 0.33 22 0.66 22 1 C28.27 1.33 34.54 1.66 41 2 C41 1.34 41 0.68 41 0 C46.28 0 51.56 0 57 0 C57 4.29 57 8.58 57 13 C50.99437496 13.17098003 44.98857999 13.33107644 38.98242188 13.48217773 C36.95012083 13.53470971 34.91788722 13.58993765 32.88574219 13.64819336 C18.53482403 14.05710208 4.33258029 13.84459534 -10 13 C-9.67 12.34 -9.34 11.68 -9 11 C4.37640574 10.87757443 17.65324871 11.07726164 31 12 C31 11.34 31 10.68 31 10 C28.69 9.67 26.38 9.34 24 9 C24 8.67 24 8.34 24 8 C21.68756208 7.97314588 19.3750373 7.95367159 17.0625 7.9375 C15.77472656 7.92589844 14.48695313 7.91429688 13.16015625 7.90234375 C10.13701597 7.63467451 10.13701597 7.63467451 9 9 C7.07332493 9.08748207 5.14348139 9.10697334 3.21484375 9.09765625 C2.04501953 9.09443359 0.87519531 9.09121094 -0.33007812 9.08789062 C-1.56177734 9.07951172 -2.79347656 9.07113281 -4.0625 9.0625 C-5.91584961 9.05573242 -5.91584961 9.05573242 -7.80664062 9.04882812 C-10.87114117 9.03699608 -13.93554721 9.02051173 -17 9 C-16.34 8.67 -15.68 8.34 -15 8 C-15 7.34 -15 6.68 -15 6 C-42.06 6 -69.12 6 -97 6 C-97 5.34 -97 4.68 -97 4 C-49.48 3.505 -49.48 3.505 -1 3 C-0.67 2.01 -0.34 1.02 0 0 Z " fill="#040506" transform="translate(325,76)"/>
      <path d="M0 0 C29.7 0 59.4 0 90 0 C89.01 0.33 88.02 0.66 87 1 C87 1.66 87 2.32 87 3 C84.69 3 82.38 3 80 3 C80 2.34 80 1.68 80 1 C53.6 1 27.2 1 0 1 C0 0.67 0 0.34 0 0 Z M53.6875 1.875 C55.47981258 1.88507191 57.27213079 1.89419016 59.06445312 1.90234375 C63.37644585 1.92397331 67.68815703 1.95825902 72 2 C72 2.33 72 2.66 72 3 C62.43 3 52.86 3 43 3 C43 3.66 43 4.32 43 5 C53.395 5.99 53.395 5.99 64 7 C64 7.66 64 8.32 64 9 C50.8 9 37.6 9 24 9 C24 9.66 24 10.32 24 11 C20.7 11 17.4 11 14 11 C14 8.69 14 6.38 14 4 C27.28874027 2.32152188 40.30143199 1.74132848 53.6875 1.875 Z M123 2 C123 2.33 123 2.66 123 3 C125.475 3.495 125.475 3.495 128 4 C128 4.33 128 4.66 128 5 C113.15 5 98.3 5 83 5 C83 5.66 83 6.32 83 7 C85.64590014 7.02684679 88.29153096 7.04676357 90.9375 7.0625 C91.69224609 7.07087891 92.44699219 7.07925781 93.22460938 7.08789062 C95.14994313 7.09652441 97.07535581 7.05224333 99 7 C99.33 6.67 99.66 6.34 100 6 C102.69654854 5.92680379 105.36691458 5.90757463 108.0625 5.9375 C108.82111328 5.94201172 109.57972656 5.94652344 110.36132812 5.95117188 C112.24091871 5.9629932 114.12046899 5.98092922 116 6 C116 6.99 116 7.98 116 9 C99.17 9 82.34 9 65 9 C64.67 7.68 64.34 6.36 64 5 C65.99520233 3.00479767 69.76047166 3.54590636 72.5 3.375 C73.20253906 3.3234375 73.90507812 3.271875 74.62890625 3.21875 C76.41692241 3.10161599 78.20874268 3.04603699 80 3 C80.33 3.33 80.66 3.66 81 4 C83.15128724 3.72756624 85.29600222 3.40344606 87.4375 3.0625 C99.21575059 1.35716561 111.13154235 1.82338605 123 2 Z " fill="#838486" transform="translate(96,61)"/>
      <path d="M0 0 C12.21 0 24.42 0 37 0 C36.67 0.99 36.34 1.98 36 3 C38.64 3.33 41.28 3.66 44 4 C44 4.33 44 4.66 44 5 C60.83 5.33 77.66 5.66 95 6 C95 6.33 95 6.66 95 7 C93.94039063 7.03738281 92.88078125 7.07476562 91.7890625 7.11328125 C90.40100576 7.17893258 89.01298651 7.24538021 87.625 7.3125 C86.92632812 7.33505859 86.22765625 7.35761719 85.5078125 7.38085938 C83.22711059 7.46984296 83.22711059 7.46984296 80 8 C79.34 8.99 78.68 9.98 78 11 C78.33 10.67 78.66 10.34 79 10 C80.4887186 9.91330568 81.981445 9.89296506 83.47265625 9.90234375 C84.37177734 9.90556641 85.27089844 9.90878906 86.19726562 9.91210938 C87.14279297 9.92048828 88.08832031 9.92886719 89.0625 9.9375 C90.4865918 9.94426758 90.4865918 9.94426758 91.93945312 9.95117188 C94.29303065 9.9629989 96.64648477 9.97947975 99 10 C98.67 10.99 98.34 11.98 98 13 C94.7 13.33 91.4 13.66 88 14 C88 14.33 88 14.66 88 15 C73.48 15 58.96 15 44 15 C44.66 14.67 45.32 14.34 46 14 C46 13.34 46 12.68 46 12 C42.04 12 38.08 12 34 12 C34 12.33 34 12.66 34 13 C27.4 13 20.8 13 14 13 C14 12.67 14 12.34 14 12 C16.64 12 19.28 12 22 12 C22 11.34 22 10.68 22 10 C32.56 9.67 43.12 9.34 54 9 C54 8.67 54 8.34 54 8 C40.14 7.505 40.14 7.505 26 7 C26 6.34 26 5.68 26 5 C23.52039864 5.14024219 21.04147598 5.2869185 18.5625 5.4375 C17.50192383 5.49647461 17.50192383 5.49647461 16.41992188 5.55664062 C12.91309581 5.47624438 12.91309581 5.47624438 10 7 C8.31391034 7.07205511 6.62499341 7.08386068 4.9375 7.0625 C4.01839844 7.05347656 3.09929687 7.04445313 2.15234375 7.03515625 C1.44207031 7.02355469 0.73179687 7.01195313 0 7 C-1.125 2.25 -1.125 2.25 0 0 Z M37 2 C47.56 2 58.12 2 69 2 C69 2.33 69 2.66 69 3 C64.97962032 3.19820989 60.95869488 3.3816467 56.9375 3.5625 C55.80376953 3.61857422 54.67003906 3.67464844 53.50195312 3.73242188 C47.84433079 3.97983976 42.56706777 4.09078977 37 3 C37 2.67 37 2.34 37 2 Z " fill="#080A0B" transform="translate(260,104)"/>
      <path d="M0 0 C14.19 0 28.38 0 43 0 C43 5.28 43 10.56 43 16 C25.675 16.495 25.675 16.495 8 17 C8 17.33 8 17.66 8 18 C1.73 18 -4.54 18 -11 18 C-11 17.67 -11 17.34 -11 17 C-14.63 16.67 -18.26 16.34 -22 16 C-22 15.67 -22 15.34 -22 15 C-21.3387915 14.97494385 -20.67758301 14.9498877 -19.99633789 14.92407227 C-17.01817695 14.80846898 -14.0403608 14.68558246 -11.0625 14.5625 C-9.50112305 14.50352539 -9.50112305 14.50352539 -7.90820312 14.44335938 C-6.42416992 14.38051758 -6.42416992 14.38051758 -4.91015625 14.31640625 C-3.99371338 14.27974854 -3.07727051 14.24309082 -2.13305664 14.20532227 C-0.0179272 14.22996136 -0.0179272 14.22996136 1 13 C3.53049402 12.92686433 6.03304837 12.90752473 8.5625 12.9375 C9.27341797 12.94201172 9.98433594 12.94652344 10.71679688 12.95117188 C12.47790013 12.96299136 14.23896036 12.98092737 16 13 C16 12.34 16 11.68 16 11 C8.08 11 0.16 11 -8 11 C-8 10.01 -8 9.02 -8 8 C-3.38 8 1.24 8 6 8 C6 8.33 6 8.66 6 9 C8.64 9 11.28 9 14 9 C14.33 8.01 14.66 7.02 15 6 C12.69 5.67 10.38 5.34 8 5 C8.33 4.01 8.66 3.02 9 2 C8.01 2.33 7.02 2.66 6 3 C3.77181559 3.06937062 1.54165476 3.08457084 -0.6875 3.0625 C-2.45673828 3.04896484 -2.45673828 3.04896484 -4.26171875 3.03515625 C-5.16535156 3.02355469 -6.06898438 3.01195313 -7 3 C-7 2.67 -7 2.34 -7 2 C-4.69 2 -2.38 2 0 2 C0 1.34 0 0.68 0 0 Z " fill="#242526" transform="translate(339,98)"/>
      <path d="M0 0 C2.64 0 5.28 0 8 0 C8 0.33 8 0.66 8 1 C5.69 1.33 3.38 1.66 1 2 C0.67 1.34 0.34 0.68 0 0 Z M-214 2 C-143.05 2 -72.1 2 1 2 C1 2.99 1 3.98 1 5 C-7.91 5 -16.82 5 -26 5 C-26 4.34 -26 3.68 -26 3 C-39.53 3.33 -53.06 3.66 -67 4 C-67 4.33 -67 4.66 -67 5 C-115.51 5.33 -164.02 5.66 -214 6 C-214 4.68 -214 3.36 -214 2 Z " fill="#2D2E2E" transform="translate(374,44)"/>
      <path d="M0 0 C0 0.33 0 0.66 0 1 C-10.56 1 -21.12 1 -32 1 C-32 1.66 -32 2.32 -32 3 C-31.01 3.99 -31.01 3.99 -30 5 C-34.95 5 -39.9 5 -45 5 C-45 4.34 -45 3.68 -45 3 C-81.96 3 -118.92 3 -157 3 C-157.33 3.99 -157.66 4.98 -158 6 C-163.10601957 6.84297013 -168.0523714 7.13894839 -173.23022461 7.11352539 C-174.41681671 7.11374443 -174.41681671 7.11374443 -175.62738037 7.1139679 C-178.21906359 7.11327616 -180.81067322 7.10551863 -183.40234375 7.09765625 C-185.20837871 7.09578944 -187.01441418 7.09436678 -188.82044983 7.09336853 C-193.5567059 7.08956404 -198.29293093 7.07975154 -203.0291748 7.06866455 C-207.86905498 7.05840583 -212.7089402 7.05386138 -217.54882812 7.04882812 C-227.03256566 7.03812731 -236.51628024 7.02107589 -246 7 C-246 6.34 -246 5.68 -246 5 C-245.01257813 4.93941406 -244.02515625 4.87882812 -243.0078125 4.81640625 C-241.72648437 4.73261719 -240.44515625 4.64882813 -239.125 4.5625 C-237.84882813 4.48128906 -236.57265625 4.40007813 -235.2578125 4.31640625 C-232.11699848 4.20793973 -232.11699848 4.20793973 -230 3 C-230 2.34 -230 1.68 -230 1 C-206.06556705 0.8682509 -182.13112725 0.73781118 -158.19667912 0.60884857 C-147.07862582 0.54891358 -135.96057497 0.48858105 -124.8425293 0.42724609 C-115.12997626 0.37366591 -105.41741916 0.32089931 -95.70485681 0.26903296 C-90.58222183 0.24165103 -85.45958943 0.21391414 -80.33696175 0.18519592 C-53.5577 0.03538869 -26.77968193 -0.03053909 0 0 Z " fill="#434445" transform="translate(317,37)"/>
      <path d="M0 0 C14.56844122 -0.02333974 29.13687955 -0.04091804 43.70533562 -0.05181217 C50.46941629 -0.05697284 57.23348536 -0.06401119 63.99755859 -0.07543945 C70.52032554 -0.08645478 77.04308494 -0.09227779 83.56586075 -0.09487724 C86.05944128 -0.09673068 88.55302111 -0.10034974 91.04659653 -0.10573006 C94.52831217 -0.11294639 98.00997735 -0.11399069 101.49169922 -0.11352539 C102.53179138 -0.11712067 103.57188354 -0.12071594 104.64349365 -0.12442017 C105.58862823 -0.1230455 106.53376282 -0.12167084 107.50753784 -0.12025452 C108.33162077 -0.12117631 109.1557037 -0.1220981 110.00475883 -0.12304783 C112 0 112 0 114 1 C114 1.66 114 2.32 114 3 C99.81 3 85.62 3 71 3 C72.11347596 4.33996932 72.11347596 4.33996932 74.95922852 4.11352539 C76.89946899 4.10567017 76.89946899 4.10567017 78.87890625 4.09765625 C79.5655687 4.0962413 80.25223114 4.09482635 80.95970154 4.09336853 C83.16067801 4.08775479 85.36155409 4.07520007 87.5625 4.0625 C89.05143083 4.05748676 90.54036324 4.05292355 92.02929688 4.04882812 C95.68623075 4.03778093 99.34310558 4.02050713 103 4 C103 4.33 103 4.66 103 5 C95.41 5 87.82 5 80 5 C79.34 6.32 78.68 7.64 78 9 C67.44 9 56.88 9 46 9 C46 8.01 46 7.02 46 6 C41.05 5.67 36.1 5.34 31 5 C31 4.67 31 4.34 31 4 C20.77 3.67 10.54 3.34 0 3 C0 2.01 0 1.02 0 0 Z " fill="#A5A6A7" transform="translate(268,95)"/>
      <path d="M0 0 C3.61328125 0.03255208 7.2265625 0.06510417 10.83984375 0.09765625 C10.83984375 4.71765625 10.83984375 9.33765625 10.83984375 14.09765625 C1.59984375 14.09765625 -7.64015625 14.09765625 -17.16015625 14.09765625 C-17.16015625 14.75765625 -17.16015625 15.41765625 -17.16015625 16.09765625 C-19.80015625 16.09765625 -22.44015625 16.09765625 -25.16015625 16.09765625 C-25.16015625 15.10765625 -25.16015625 14.11765625 -25.16015625 13.09765625 C-22.52015625 12.76765625 -19.88015625 12.43765625 -17.16015625 12.09765625 C-16.83015625 10.44765625 -16.50015625 8.79765625 -16.16015625 7.09765625 C-45.36515625 6.60265625 -45.36515625 6.60265625 -75.16015625 6.09765625 C-75.16015625 5.76765625 -75.16015625 5.43765625 -75.16015625 5.09765625 C-73.92338135 5.0726001 -72.68660645 5.04754395 -71.41235352 5.02172852 C-66.84078912 4.92783372 -62.26938307 4.82756996 -57.69799805 4.7253418 C-55.71626479 4.68192481 -53.73449247 4.64025488 -51.75268555 4.6003418 C-48.91052455 4.54280242 -46.06856142 4.4790618 -43.2265625 4.4140625 C-41.889067 4.38899376 -41.889067 4.38899376 -40.52455139 4.36341858 C-36.5206723 4.66106925 -36.5206723 4.66106925 -33.16015625 3.09765625 C-31.67376633 2.94110598 -30.18066498 2.84698682 -28.6875 2.78125 C-27.78837891 2.73935547 -26.88925781 2.69746094 -25.96289062 2.65429688 C-25.01736328 2.61498047 -24.07183594 2.57566406 -23.09765625 2.53515625 C-22.14826172 2.49197266 -21.19886719 2.44878906 -20.22070312 2.40429688 C-17.86734272 2.29786349 -15.51387271 2.19584617 -13.16015625 2.09765625 C-13.16015625 1.76765625 -13.16015625 1.43765625 -13.16015625 1.09765625 C-12.52207031 1.10925781 -11.88398438 1.12085938 -11.2265625 1.1328125 C-10.40027344 1.14183594 -9.57398438 1.15085938 -8.72265625 1.16015625 C-7.48708984 1.17755859 -7.48708984 1.17755859 -6.2265625 1.1953125 C-3.30957477 1.05745864 -3.31250367 0.10236414 0 0 Z " fill="#515254" transform="translate(371.16015625,51.90234375)"/>
      <path d="M0 0 C22.912999 -0.04666534 45.82599019 -0.08196197 68.73902702 -0.10362434 C79.37730368 -0.1139487 90.01555086 -0.1280311 100.65380859 -0.15087891 C109.92321356 -0.17077738 119.19259718 -0.183708 128.4620229 -0.18817699 C133.37272795 -0.19079039 138.28337193 -0.19695694 143.19405746 -0.21146011 C147.81177136 -0.22498813 152.42939875 -0.22923238 157.04713058 -0.22621536 C158.74593068 -0.22676768 160.44473353 -0.23077349 162.14351654 -0.23841095 C164.45506905 -0.24829757 166.76629088 -0.24599214 169.07785034 -0.24050903 C171.02191175 -0.24327441 171.02191175 -0.24327441 173.00524712 -0.24609566 C176 0 176 0 178 2 C175.61536221 3.1923189 174.16879168 3.12323131 171.50753784 3.12025452 C170.56240326 3.12162918 169.61726868 3.12300385 168.64349365 3.12442017 C167.60340149 3.12082489 166.56330933 3.11722961 165.49169922 3.11352539 C164.39900726 3.11367142 163.30631531 3.11381744 162.18051147 3.1139679 C158.55521688 3.11326914 154.92997316 3.10547842 151.3046875 3.09765625 C148.79647856 3.09579194 146.28826925 3.0943681 143.78005981 3.09336853 C137.84440201 3.08993561 131.90876063 3.08204764 125.97311127 3.07201904 C118.55369203 3.05975505 111.13427053 3.05437629 103.71484375 3.04882812 C90.47655316 3.0380926 77.23827774 3.02120871 64 3 C64 2.34 64 1.68 64 1 C42.88 1 21.76 1 0 1 C0 0.67 0 0.34 0 0 Z " fill="#A1A1A2" transform="translate(96,39)"/>
      <path d="M0 0 C42.9 0 85.8 0 130 0 C129.67 0.99 129.34 1.98 129 3 C121.91012373 3.94478295 115.0172149 4.10590509 107.87084961 4.02172852 C106.68935333 4.01212097 105.50785706 4.00251343 104.29055786 3.99261475 C100.41108898 3.9598085 96.53173928 3.9194068 92.65234375 3.87890625 C89.95236613 3.8539876 87.25237515 3.83069162 84.55238342 3.80735779 C78.18838854 3.75143488 71.82445891 3.69003917 65.46053463 3.62663645 C58.21019969 3.55467209 50.95981282 3.48887085 43.70941532 3.42356598 C28.80620941 3.28919472 13.9030856 3.14715304 -1 3 C-0.67 2.01 -0.34 1.02 0 0 Z " fill="#3C3C3C" transform="translate(152,52)"/>
      <path d="M0 0 C6.44296452 0.72095852 12.83791828 0.68737857 19.31469727 0.65991211 C20.5879184 0.65849716 21.86113953 0.65708221 23.17294312 0.65562439 C26.52328455 0.65100591 29.87355504 0.64205471 33.22387695 0.63092041 C36.65648798 0.62060706 40.08910639 0.61610572 43.52172852 0.61108398 C50.23138317 0.6001064 56.94100488 0.58340721 63.65063477 0.56225586 C63.65063477 0.89225586 63.65063477 1.22225586 63.65063477 1.56225586 C57.71063477 1.56225586 51.77063477 1.56225586 45.65063477 1.56225586 C45.65063477 2.22225586 45.65063477 2.88225586 45.65063477 3.56225586 C51.26063477 3.89225586 56.87063477 4.22225586 62.65063477 4.56225586 C62.65063477 4.89225586 62.65063477 5.22225586 62.65063477 5.56225586 C49.78063477 5.56225586 36.91063477 5.56225586 23.65063477 5.56225586 C23.15563477 4.57225586 23.15563477 4.57225586 22.65063477 3.56225586 C22.65063477 4.55225586 22.65063477 5.54225586 22.65063477 6.56225586 C30.57063477 6.56225586 38.49063477 6.56225586 46.65063477 6.56225586 C46.65063477 6.89225586 46.65063477 7.22225586 46.65063477 7.56225586 C27.51063477 7.56225586 8.37063477 7.56225586 -11.34936523 7.56225586 C-11.34936523 7.23225586 -11.34936523 6.90225586 -11.34936523 6.56225586 C-20.25936523 6.23225586 -29.16936523 5.90225586 -38.34936523 5.56225586 C-38.34936523 4.57225586 -38.34936523 3.58225586 -38.34936523 2.56225586 C-37.56811279 2.54243652 -36.78686035 2.52261719 -35.98193359 2.50219727 C-32.41659205 2.40650114 -28.85180082 2.29700247 -25.28686523 2.18725586 C-24.05774414 2.15631836 -22.82862305 2.12538086 -21.56225586 2.09350586 C-14.49326598 1.88861538 -14.49326598 1.88861538 -7.60327148 0.46069336 C-4.46301013 -0.4063656 -3.11904291 -0.4161877 0 0 Z M-11.34936523 3.56225586 C-11.34936523 3.89225586 -11.34936523 4.22225586 -11.34936523 4.56225586 C-4.43429644 5.69518582 2.16812571 5.48808019 9.15063477 5.12475586 C10.81352539 5.04644531 10.81352539 5.04644531 12.51000977 4.96655273 C15.2239068 4.83787658 17.93733934 4.7029618 20.65063477 4.56225586 C20.65063477 4.23225586 20.65063477 3.90225586 20.65063477 3.56225586 C10.09063477 3.56225586 -0.46936523 3.56225586 -11.34936523 3.56225586 Z " fill="#717375" transform="translate(308.349365234375,102.437744140625)"/>
      <path d="M0 0 C42.24 0 84.48 0 128 0 C128 0.66 128 1.32 128 2 C128.99 2.33 129.98 2.66 131 3 C87.44 3 43.88 3 -1 3 C-0.67 2.01 -0.34 1.02 0 0 Z " fill="#818283" transform="translate(161,43)"/>
      <path d="M0 0 C48.18 0 96.36 0 146 0 C140.98003067 5.01996933 128.83227692 3.11623004 122.06660461 3.12442017 C120.8660997 3.12082489 119.66559479 3.11722961 118.42871094 3.11352539 C116.48024513 3.11374443 116.48024513 3.11374443 114.49241638 3.1139679 C110.97049778 3.11425189 107.44861404 3.1084202 103.92670345 3.10139394 C100.23118713 3.09509347 96.53566979 3.09455135 92.84014893 3.09336853 C85.8600538 3.09027479 78.87997454 3.08208807 71.89988637 3.07201904 C63.94571085 3.06079676 55.99153452 3.05533212 48.03735304 3.05032361 C31.69155943 3.03990358 15.34578175 3.02234247 -1 3 C-0.67 2.01 -0.34 1.02 0 0 Z " fill="#777879" transform="translate(161,49)"/>
      <path d="M0 0 C19.47 0 38.94 0 59 0 C58.34 0.99 57.68 1.98 57 3 C84.72 3.33 112.44 3.66 141 4 C141 4.33 141 4.66 141 5 C71.04 5 1.08 5 -71 5 C-71 4.67 -71 4.34 -71 4 C-42.95 3.67 -14.9 3.34 14 3 C14 2.67 14 2.34 14 2 C9.38 2 4.76 2 0 2 C0 1.34 0 0.68 0 0 Z M-2 2 C0 3 0 3 0 3 Z " fill="#000000" transform="translate(71,126)"/>
      <path d="M0 0 C1.09795647 0.00303635 1.09795647 0.00303635 2.21809387 0.00613403 C3.36929214 0.00350555 3.36929214 0.00350555 4.54374695 0.00082397 C7.09350309 -0.00359537 9.64319047 -0.00065598 12.19294739 0.00271606 C13.95792657 0.00204298 15.72290566 0.00107292 17.48788452 -0.00018311 C21.19272237 -0.00166025 24.89753616 0.00049474 28.60237122 0.00515747 C33.3585804 0.01085061 38.11473311 0.00757849 42.87094021 0.00158501 C46.5176842 -0.00202372 50.16441474 -0.00088051 53.81115913 0.0017128 C55.56509978 0.00238142 57.31904164 0.0015559 59.07298088 -0.00076675 C61.52242656 -0.00329791 63.97178008 0.00055408 66.42121887 0.00613403 C67.15116562 0.0041098 67.88111237 0.00208557 68.63317871 0 C73.65582657 0.02126503 73.65582657 0.02126503 75.88435364 1.13552856 C75.88435364 1.79552856 75.88435364 2.45552856 75.88435364 3.13552856 C44.20435364 3.13552856 12.52435364 3.13552856 -20.11564636 3.13552856 C-20.11564636 3.79552856 -20.11564636 4.45552856 -20.11564636 5.13552856 C-28.03564636 5.13552856 -35.95564636 5.13552856 -44.11564636 5.13552856 C-44.11564636 5.79552856 -44.11564636 6.45552856 -44.11564636 7.13552856 C-48.40564636 7.13552856 -52.69564636 7.13552856 -57.11564636 7.13552856 C-57.11564636 6.14552856 -57.11564636 5.15552856 -57.11564636 4.13552856 C-56.18881042 4.07494263 -55.26197449 4.01435669 -54.30705261 3.95193481 C-53.10951355 3.86814575 -51.91197449 3.78435669 -50.67814636 3.69802856 C-48.88570496 3.57621216 -48.88570496 3.57621216 -47.05705261 3.45193481 C-44.22994392 3.45896743 -44.22994392 3.45896743 -43.11564636 2.13552856 C-40.39028631 1.9877589 -37.68702345 1.90050488 -34.95939636 1.85427856 C-33.7331958 1.82666443 -33.7331958 1.82666443 -32.48222351 1.79849243 C-28.96970652 1.71954252 -25.45698961 1.65198328 -21.94425964 1.58328247 C-19.38670528 1.53166732 -16.82932192 1.47437199 -14.27189636 1.41677856 C-13.07034912 1.39641541 -13.07034912 1.39641541 -11.8445282 1.37564087 C-7.46970794 1.2764684 -4.32564881 0.01839192 0 0 Z " fill="#7E7F80" transform="translate(234.1156463623047,80.86447143554688)"/>
      <path d="M0 0 C6.6 0 13.2 0 20 0 C20 0.66 20 1.32 20 2 C32.21 1.67 44.42 1.34 57 1 C56.67 1.66 56.34 2.32 56 3 C59.96 3.33 63.92 3.66 68 4 C67.67 4.99 67.34 5.98 67 7 C44.65868384 7.7022517 22.35385766 8.16371839 0 8 C-0.79953138 4.71303767 -1.09658936 3.28976808 0 0 Z " fill="#434446" transform="translate(160,76)"/>
      <path d="M0 0 C11.22 0 22.44 0 34 0 C34 0.66 34 1.32 34 2 C36.31 2.33 38.62 2.66 41 3 C41 3.66 41 4.32 41 5 C43.64 5.33 46.28 5.66 49 6 C49 6.33 49 6.66 49 7 C48.40461426 7.01458252 47.80922852 7.02916504 47.19580078 7.04418945 C44.50486949 7.11854344 41.81519667 7.21524187 39.125 7.3125 C37.71927734 7.34633789 37.71927734 7.34633789 36.28515625 7.38085938 C35.38925781 7.41630859 34.49335938 7.45175781 33.5703125 7.48828125 C32.74289551 7.51446533 31.91547852 7.54064941 31.06298828 7.56762695 C28.60672068 7.83096637 28.60672068 7.83096637 27 11 C31.29 11.33 35.58 11.66 40 12 C40 11.34 40 10.68 40 10 C42.97 10 45.94 10 49 10 C49 10.99 49 11.98 49 13 C39.76 13 30.52 13 21 13 C21 12.34 21 11.68 21 11 C11.595 9.515 11.595 9.515 2 8 C2 7.01 2 6.02 2 5 C3.65 4.67 5.3 4.34 7 4 C4.36 3.67 1.72 3.34 -1 3 C-0.67 2.01 -0.34 1.02 0 0 Z " fill="#26282A" transform="translate(103,82)"/>
      <path d="M0 0 C0 1.32 0 2.64 0 4 C10.56 4 21.12 4 32 4 C32.495 6.475 32.495 6.475 33 9 C29.20835009 9.02943124 25.41673021 9.0469419 21.625 9.0625 C20.03365234 9.07506836 20.03365234 9.07506836 18.41015625 9.08789062 C13.70733163 9.10231647 9.08053669 9.07551626 4.40625 8.53125 C-3.7296216 7.60750153 -11.94634347 7.62840805 -20.125 7.4375 C-21.8619877 7.39422119 -23.598967 7.35060422 -25.3359375 7.30664062 C-29.55720499 7.20052656 -33.7785598 7.09899471 -38 7 C-38 6.67 -38 6.34 -38 6 C-30.41 6 -22.82 6 -15 6 C-15 4.68 -15 3.36 -15 2 C-17.3431213 2.25561323 -19.67843403 2.59270772 -22 3 C-22.33 3.66 -22.66 4.32 -23 5 C-27.95 5 -32.9 5 -38 5 C-38 4.01 -38 3.02 -38 2 C-12.23623663 -0.38776806 -12.23623663 -0.38776806 0 0 Z " fill="#747576" transform="translate(229,105)"/>
      <path d="M0 0 C9.24 0 18.48 0 28 0 C28.33 0.99 28.66 1.98 29 3 C31.64 3.33 34.28 3.66 37 4 C37 4.99 37 5.98 37 7 C-0.07494846 8.09513773 -37.13467228 8.12556951 -74.22133851 8.07202661 C-82.29228833 8.06058858 -90.36323929 8.05528632 -98.43419528 8.05032361 C-114.95613971 8.04003597 -131.4780677 8.02259727 -148 8 C-148 7.34 -148 6.68 -148 6 C-134.8 6 -121.6 6 -108 6 C-108 5.34 -108 4.68 -108 4 C-102.72 4 -97.44 4 -92 4 C-92 4.33 -92 4.66 -92 5 C-55.04 5.33 -18.08 5.66 20 6 C20 5.01 20 4.02 20 3 C12.74 3 5.48 3 -2 3 C-1.34 2.67 -0.68 2.34 0 2 C0 1.34 0 0.68 0 0 Z " fill="#000001" transform="translate(268,64)"/>
      <path d="M0 0 C9.24 0 18.48 0 28 0 C28 0.33 28 0.66 28 1 C41.86 1 55.72 1 70 1 C70 1.33 70 1.66 70 2 C67.03 2 64.06 2 61 2 C60.67 2.66 60.34 3.32 60 4 C58.14034925 5.85965075 55.05110881 5.24087549 52.55859375 5.31640625 C50.60083008 5.37924805 50.60083008 5.37924805 48.60351562 5.44335938 C47.2148467 5.48317608 45.82617478 5.52288825 44.4375 5.5625 C43.04490817 5.60567989 41.65232972 5.649294 40.25976562 5.69335938 C36.83995199 5.79985876 33.42006237 5.90186923 30 6 C30 5.34 30 4.68 30 4 C23.73 3.67 17.46 3.34 11 3 C11 2.34 11 1.68 11 1 C7.37 1 3.74 1 0 1 C0 0.67 0 0.34 0 0 Z M-25 4 C-21.04 4 -17.08 4 -13 4 C-13 4.33 -13 4.66 -13 5 C1.19 5.33 15.38 5.66 30 6 C30 6.33 30 6.66 30 7 C46.335 7.495 46.335 7.495 63 8 C63 8.33 63 8.66 63 9 C47.70692198 9.84561726 32.43782671 10.10956651 17.125 10.125 C16.25955566 10.12749756 15.39411133 10.12999512 14.50244141 10.13256836 C5.28713164 10.15439731 -3.83732001 10.13275599 -13 9 C-13 8.67 -13 8.34 -13 8 C-16.63 7.67 -20.26 7.34 -24 7 C-24.33 6.01 -24.66 5.02 -25 4 Z " fill="#040506" transform="translate(307,50)"/>
      <path d="M0 0 C1.98 0 3.96 0 6 0 C6 2.31 6 4.62 6 7 C-12.48 7 -30.96 7 -50 7 C-50 6.67 -50 6.34 -50 6 C-56.27 5.67 -62.54 5.34 -69 5 C-69 4.34 -69 3.68 -69 3 C-73.62 3 -78.24 3 -83 3 C-83 2.67 -83 2.34 -83 2 C-64.85 2 -46.7 2 -28 2 C-28 2.66 -28 3.32 -28 4 C-19.09 3.67 -10.18 3.34 -1 3 C-0.67 2.01 -0.34 1.02 0 0 Z M-71 5 C-69 6 -69 6 -69 6 Z " fill="#3F4244" transform="translate(376,45)"/>
      <path d="M0 0 C26.4 0 52.8 0 80 0 C80 0.66 80 1.32 80 2 C89.24 2 98.48 2 108 2 C108 2.33 108 2.66 108 3 C105.03 3 102.06 3 99 3 C99 3.66 99 4.32 99 5 C91.66765073 5.02533904 84.33531273 5.04286227 77.00292969 5.05493164 C74.50813373 5.05996278 72.01334072 5.06678834 69.51855469 5.07543945 C65.93423738 5.08755827 62.34995904 5.0932405 58.765625 5.09765625 C57.64883362 5.10281754 56.53204224 5.10797882 55.38140869 5.11329651 C54.34063171 5.11337204 53.29985474 5.11344757 52.22753906 5.11352539 C50.85520111 5.11685631 50.85520111 5.11685631 49.45513916 5.12025452 C47.14397819 5.00705216 45.21599421 4.63419099 43 4 C41.33480481 3.65939189 39.66842534 3.32441604 38 3 C38 2.67 38 2.34 38 2 C25.46 1.67 12.92 1.34 0 1 C0 0.67 0 0.34 0 0 Z " fill="#585A5C" transform="translate(238,51)"/>
      <path d="M0 0 C12.21 0 24.42 0 37 0 C36.67 0.99 36.34 1.98 36 3 C38.64 3.33 41.28 3.66 44 4 C44 4.33 44 4.66 44 5 C60.83 5.33 77.66 5.66 95 6 C95 6.33 95 6.66 95 7 C72.01957904 8.89250526 49.00551088 7.92573546 26 7 C26 6.34 26 5.68 26 5 C23.52039864 5.14024219 21.04147598 5.2869185 18.5625 5.4375 C17.50192383 5.49647461 17.50192383 5.49647461 16.41992188 5.55664062 C12.91309581 5.47624438 12.91309581 5.47624438 10 7 C8.31391034 7.07205511 6.62499341 7.08386068 4.9375 7.0625 C4.01839844 7.05347656 3.09929687 7.04445313 2.15234375 7.03515625 C1.44207031 7.02355469 0.73179687 7.01195313 0 7 C-1.125 2.25 -1.125 2.25 0 0 Z M37 2 C47.56 2 58.12 2 69 2 C69 2.33 69 2.66 69 3 C64.97962032 3.19820989 60.95869488 3.3816467 56.9375 3.5625 C55.80376953 3.61857422 54.67003906 3.67464844 53.50195312 3.73242188 C47.84433079 3.97983976 42.56706777 4.09078977 37 3 C37 2.67 37 2.34 37 2 Z " fill="#010202" transform="translate(260,104)"/>
      <path d="M0 0 C16.17 0 32.34 0 49 0 C49 0.33 49 0.66 49 1 C46.69 1.33 44.38 1.66 42 2 C41.67 2.99 41.34 3.98 41 5 C40.24380371 4.99476318 39.48760742 4.98952637 38.70849609 4.98413086 C35.26400593 4.96327276 31.8195291 4.95031174 28.375 4.9375 C27.18519531 4.92912109 25.99539063 4.92074219 24.76953125 4.91210938 C23.61582031 4.90888672 22.46210938 4.90566406 21.2734375 4.90234375 C20.21560059 4.89710693 19.15776367 4.89187012 18.06787109 4.88647461 C15.02210222 4.92940442 15.02210222 4.92940442 12.15039062 5.5 C8.17816931 6.13043314 4.33453933 6.12427441 0.3203125 6.09765625 C-0.49245148 6.0962413 -1.30521545 6.09482635 -2.14260864 6.09336853 C-4.72011101 6.08780335 -7.2975242 6.0752574 -9.875 6.0625 C-11.63020707 6.0574805 -13.38541552 6.05291838 -15.140625 6.04882812 C-19.42711732 6.03784534 -23.71354357 6.02060492 -28 6 C-28 5.67 -28 5.34 -28 5 C-27.030625 4.87625 -26.06125 4.7525 -25.0625 4.625 C-24.051875 4.41875 -23.04125 4.2125 -22 4 C-21.67 3.34 -21.34 2.68 -21 2 C-14.07 2 -7.14 2 0 2 C0 1.34 0 0.68 0 0 Z " fill="#626466" transform="translate(289,98)"/>
      <path d="M0 0 C5.28 0 10.56 0 16 0 C16 1.65 16 3.3 16 5 C20.29 5 24.58 5 29 5 C29.33 4.01 29.66 3.02 30 2 C34.62 2 39.24 2 44 2 C46 6 46 6 46 7 C48.31 7.33 50.62 7.66 53 8 C53 10.31 53 12.62 53 15 C45.41 15.33 37.82 15.66 30 16 C29 11 29 11 29 8 C19.43 8 9.86 8 0 8 C-1 3 -1 3 0 0 Z " fill="#000000" transform="translate(160,86)"/>
      <path d="M0 0 C0.76166977 0.00222061 1.52333954 0.00444122 2.30809021 0.00672913 C3.16890701 0.00680466 4.02972382 0.00688019 4.91662598 0.00695801 C5.8520372 0.01211929 6.78744843 0.01728058 7.75120544 0.02259827 C8.70422043 0.02401321 9.65723541 0.02542816 10.63912964 0.02688599 C13.69605085 0.032503 16.75289996 0.04505836 19.80979919 0.05775452 C21.87685543 0.06276733 23.94391281 0.06733061 26.01097107 0.07142639 C31.08977507 0.08247795 36.16852489 0.09975397 41.24729919 0.12025452 C41.24729919 2.43025452 41.24729919 4.74025452 41.24729919 7.12025452 C30.35729919 7.12025452 19.46729919 7.12025452 8.24729919 7.12025452 C7.91729919 5.47025452 7.58729919 3.82025452 7.24729919 2.12025452 C6.03042419 2.28525452 4.81354919 2.45025452 3.55979919 2.62025452 C-2.5380734 3.31186626 -8.62457318 3.20549895 -14.75270081 3.12025452 C-14.75270081 2.79025452 -14.75270081 2.46025452 -14.75270081 2.12025452 C-13.89805237 2.05966858 -13.04340393 1.99908264 -12.16285706 1.93666077 C-10.50576721 1.81097717 -10.50576721 1.81097717 -8.81520081 1.68275452 C-7.71305237 1.60154358 -6.61090393 1.52033264 -5.47535706 1.43666077 C-2.82628875 1.12880634 -2.38788586 0.16383518 0 0 Z " fill="#686A6B" transform="translate(110.75270080566406,116.87974548339844)"/>
      <path d="M0 0 C6.6 0 13.2 0 20 0 C20 3.63 20 7.26 20 11 C1.17995444 12.33257403 1.17995444 12.33257403 -8 11 C-7.01 8.69 -6.02 6.38 -5 4 C-4.34 4 -3.68 4 -3 4 C-3 3.34 -3 2.68 -3 2 C-2.01 2 -1.02 2 0 2 C0 1.34 0 0.68 0 0 Z " fill="#101316" transform="translate(42,90)"/>
      <path d="M0 0 C12.87 0 25.74 0 39 0 C39 1.65 39 3.3 39 5 C29.1 5.495 29.1 5.495 19 6 C19 6.33 19 6.66 19 7 C10.75 7 2.5 7 -6 7 C-6 6.67 -6 6.34 -6 6 C-1.05 5.67 3.9 5.34 9 5 C9 4.67 9 4.34 9 4 C6.03 3.505 6.03 3.505 3 3 C3 3.66 3 4.32 3 5 C-3.6 5 -10.2 5 -17 5 C-17 4.67 -17 4.34 -17 4 C-8.585 3.505 -8.585 3.505 0 3 C0 2.01 0 1.02 0 0 Z " fill="#545759" transform="translate(113,95)"/>
      <path d="M0 0 C11.55 0 23.1 0 35 0 C35 0.33 35 0.66 35 1 C31.04 1 27.08 1 23 1 C23 1.66 23 2.32 23 3 C36.86 3.33 50.72 3.66 65 4 C65.495 5.485 65.495 5.485 66 7 C58.58540058 7.02312883 51.17080889 7.04091785 43.75618076 7.05181217 C40.31359652 7.05703982 36.87103688 7.06413531 33.4284668 7.07543945 C29.47444957 7.08834235 25.52044244 7.09322918 21.56640625 7.09765625 C19.70394005 7.10539818 19.70394005 7.10539818 17.80384827 7.11329651 C16.09218727 7.11340981 16.09218727 7.11340981 14.34594727 7.11352539 C13.335569 7.115746 12.32519073 7.11796661 11.28419495 7.12025452 C9 7 9 7 8 6 C6.00217874 5.84174742 3.99911166 5.74880829 1.99609375 5.68359375 C0.78115234 5.64169922 -0.43378906 5.59980469 -1.68554688 5.55664062 C-2.96494141 5.51732422 -4.24433594 5.47800781 -5.5625 5.4375 C-6.84576172 5.39431641 -8.12902344 5.35113281 -9.45117188 5.30664062 C-12.63399853 5.200152 -15.81690674 5.09814038 -19 5 C-19 4.67 -19 4.34 -19 4 C-9.43 3.67 0.14 3.34 10 3 C10.33 2.34 10.66 1.68 11 1 C7.37 1 3.74 1 0 1 C0 0.67 0 0.34 0 0 Z M7 7 C9 8 9 8 9 8 Z " fill="#5D6063" transform="translate(283,115)"/>
      <path d="M0 0 C0 0.66 0 1.32 0 2 C3.63 2 7.26 2 11 2 C11 4.97 11 7.94 11 11 C5.13962379 12.13708792 -0.03529201 11.78512775 -5.9375 11.0625 C-6.81212891 10.96259766 -7.68675781 10.86269531 -8.58789062 10.75976562 C-10.72617914 10.51438825 -12.86323286 10.25829053 -15 10 C-14.67 9.01 -14.34 8.02 -14 7 C-14.66 6.67 -15.32 6.34 -16 6 C-14.78441406 6.01160156 -13.56882812 6.02320312 -12.31640625 6.03515625 C-10.73177236 6.04453278 -9.14713682 6.05363313 -7.5625 6.0625 C-6.35883789 6.07506836 -6.35883789 6.07506836 -5.13085938 6.08789062 C-3.08704779 6.0965143 -1.04316098 6.0522815 1 6 C1.33 5.67 1.66 5.34 2 5 C0.08574219 5.03480469 0.08574219 5.03480469 -1.8671875 5.0703125 C-3.5364525 5.08906829 -5.2057238 5.10726869 -6.875 5.125 C-8.13763672 5.15013672 -8.13763672 5.15013672 -9.42578125 5.17578125 C-10.23144531 5.18222656 -11.03710938 5.18867187 -11.8671875 5.1953125 C-12.61081543 5.20578613 -13.35444336 5.21625977 -14.12060547 5.22705078 C-16 5 -16 5 -18 3 C-17.67 2.34 -17.34 1.68 -17 1 C-14.49166735 0.68608824 -12.08073104 0.48661135 -9.5625 0.375 C-8.52125977 0.31699219 -8.52125977 0.31699219 -7.45898438 0.2578125 C-4.971879 0.12298394 -2.49118145 0 0 0 Z M-1 7 C-0.34 7.66 0.32 8.32 1 9 C1 8.34 1 7.68 1 7 C0.34 7 -0.32 7 -1 7 Z " fill="#0E1113" transform="translate(51,117)"/>
      <path d="M0 0 C3.63 0 7.26 0 11 0 C11 2.97 11 5.94 11 9 C1.76 9 -7.48 9 -17 9 C-17 9.66 -17 10.32 -17 11 C-19.64 11 -22.28 11 -25 11 C-25 10.01 -25 9.02 -25 8 C-22.36 7.67 -19.72 7.34 -17 7 C-16.67 5.35 -16.34 3.7 -16 2 C-8.08 1.505 -8.08 1.505 0 1 C0 0.67 0 0.34 0 0 Z " fill="#666769" transform="translate(371,57)"/>
      <path d="M0 0 C1.66281872 -0.00682399 3.325627 -0.01706592 4.98840332 -0.03076172 C7.30310262 -0.04847432 9.61743133 -0.05291765 11.93218994 -0.05322266 C13.89563354 -0.05938599 13.89563354 -0.05938599 15.89874268 -0.06567383 C19.06109619 0.17724609 19.06109619 0.17724609 22.06109619 2.17724609 C14.80109619 2.17724609 7.54109619 2.17724609 0.06109619 2.17724609 C0.06109619 2.83724609 0.06109619 3.49724609 0.06109619 4.17724609 C-7.59693701 4.24668327 -15.25493767 4.30002523 -22.91321373 4.33268261 C-26.46909052 4.34835473 -30.02475233 4.36962053 -33.58050537 4.40356445 C-37.66613863 4.44232369 -41.75154522 4.45694242 -45.83734131 4.47021484 C-47.11757172 4.4856987 -48.39780212 4.50118256 -49.71682739 4.51713562 C-50.8979007 4.51736221 -52.078974 4.51758881 -53.2958374 4.51782227 C-54.86136856 4.52781502 -54.86136856 4.52781502 -56.45852661 4.53800964 C-57.27705109 4.41895767 -58.09557556 4.2999057 -58.93890381 4.17724609 C-59.59890381 3.18724609 -60.25890381 2.19724609 -60.93890381 1.17724609 C-40.62967939 0.60403874 -20.31814391 0.07418409 0 0 Z " fill="#404245" transform="translate(349.93890380859375,39.82275390625)"/>
      <path d="M0 0 C5.28 0 10.56 0 16 0 C16 6.93 16 13.86 16 21 C10.72 21.33 5.44 21.66 0 22 C-0.89031414 17.54842931 -1.13383556 13.82305256 -1.125 9.3125 C-1.12886719 8.63638672 -1.13273438 7.96027344 -1.13671875 7.26367188 C-1.12674825 2.2534965 -1.12674825 2.2534965 0 0 Z " fill="#000000" transform="translate(160,96)"/>
      <path d="M0 0 C9.57 0 19.14 0 29 0 C28.67 1.65 28.34 3.3 28 5 C28.33 6.32 28.66 7.64 29 9 C19.43 9 9.86 9 0 9 C0 6 0 3 0 0 Z " fill="#656667" transform="translate(161,83)"/>
      <path d="M0 0 C1.80164108 0.0001133 1.80164108 0.0001133 3.63967896 0.00022888 C4.94178314 0.00539017 6.24388733 0.01055145 7.58544922 0.01586914 C8.92780505 0.01773401 10.27016156 0.01915759 11.61251831 0.02015686 C15.14709347 0.02397661 18.68162759 0.03380227 22.21618652 0.04486084 C25.82234136 0.05508661 29.42850282 0.05965698 33.03466797 0.06469727 C40.11150768 0.07542501 47.18831952 0.09249494 54.26513672 0.11352539 C54.26513672 1.10352539 54.26513672 2.09352539 54.26513672 3.11352539 C34.13513672 3.11352539 14.00513672 3.11352539 -6.73486328 3.11352539 C-7.06486328 2.45352539 -7.39486328 1.79352539 -7.73486328 1.11352539 C-5.05387275 -0.22696987 -3.00175122 -0.00627981 0 0 Z " fill="#747677" transform="translate(233.73486328125,66.886474609375)"/>
      <path d="M0 0 C11.88 0 23.76 0 36 0 C35.67 1.65 35.34 3.3 35 5 C23.45 5 11.9 5 0 5 C0 3.35 0 1.7 0 0 Z " fill="#0B0D0F" transform="translate(0,50)"/>
      <path d="M0 0 C1.79231258 0.01007191 3.58463079 0.01919016 5.37695312 0.02734375 C9.68894585 0.04897331 14.00065703 0.08325902 18.3125 0.125 C18.3125 0.455 18.3125 0.785 18.3125 1.125 C8.7425 1.125 -0.8275 1.125 -10.6875 1.125 C-10.6875 1.785 -10.6875 2.445 -10.6875 3.125 C-6.3975 3.455 -2.1075 3.785 2.3125 4.125 C2.3125 4.455 2.3125 4.785 2.3125 5.125 C1.62212646 5.15005615 0.93175293 5.1751123 0.22045898 5.20092773 C-2.93651409 5.3176566 -6.09324457 5.44003178 -9.25 5.5625 C-10.33603516 5.60181641 -11.42207031 5.64113281 -12.54101562 5.68164062 C-20.66543106 5.94696115 -20.66543106 5.94696115 -28.6875 7.125 C-29.0175 7.785 -29.3475 8.445 -29.6875 9.125 C-32.9875 9.125 -36.2875 9.125 -39.6875 9.125 C-39.6875 6.815 -39.6875 4.505 -39.6875 2.125 C-26.39875973 0.44652188 -13.38606801 -0.13367152 0 0 Z " fill="#858687" transform="translate(149.6875,62.875)"/>
      <path d="M0 0 C1.77206192 0.00015919 3.54412846 0.00585754 5.31616211 0.01586914 C6.24698105 0.01728409 7.17779999 0.01869904 8.13682556 0.02015686 C11.12241777 0.02577367 14.10793615 0.03832899 17.09350586 0.05102539 C19.11238499 0.05603823 21.13126529 0.06060151 23.15014648 0.06469727 C28.11046158 0.07574856 33.07072118 0.09302444 38.03100586 0.11352539 C38.03100586 1.10352539 38.03100586 2.09352539 38.03100586 3.11352539 C20.70600586 3.60852539 20.70600586 3.60852539 3.03100586 4.11352539 C3.03100586 4.44352539 3.03100586 4.77352539 3.03100586 5.11352539 C-3.23899414 5.11352539 -9.50899414 5.11352539 -15.96899414 5.11352539 C-15.96899414 4.78352539 -15.96899414 4.45352539 -15.96899414 4.11352539 C-19.59899414 3.78352539 -23.22899414 3.45352539 -26.96899414 3.11352539 C-26.96899414 2.78352539 -26.96899414 2.45352539 -26.96899414 2.11352539 C-25.9771814 2.07594116 -25.9771814 2.07594116 -24.96533203 2.03759766 C-21.98717109 1.92199437 -19.00935495 1.79910785 -16.03149414 1.67602539 C-14.47011719 1.61705078 -14.47011719 1.61705078 -12.87719727 1.55688477 C-11.39316406 1.49404297 -11.39316406 1.49404297 -9.87915039 1.42993164 C-8.50448608 1.37494507 -8.50448608 1.37494507 -7.10205078 1.31884766 C-3.6971101 0.99109727 -4.16341941 0.11908655 0 0 Z " fill="#5A5C5E" transform="translate(343.968994140625,110.886474609375)"/>
      <path d="M0 0 C21.78 0 43.56 0 66 0 C65.67 0.99 65.34 1.98 65 3 C59.89398043 3.84297013 54.9476286 4.13894839 49.76977539 4.11352539 C48.58318329 4.11374443 48.58318329 4.11374443 47.37261963 4.1139679 C44.78093641 4.11327616 42.18932678 4.10551863 39.59765625 4.09765625 C37.79162129 4.09578944 35.98558582 4.09436678 34.17955017 4.09336853 C29.4432941 4.08956404 24.70706907 4.07975154 19.9708252 4.06866455 C15.13094502 4.05840583 10.2910598 4.05386138 5.45117188 4.04882812 C-4.03256566 4.03812731 -13.51628024 4.02107589 -23 4 C-23 3.34 -23 2.68 -23 2 C-15.41 1.67 -7.82 1.34 0 1 C0 0.67 0 0.34 0 0 Z " fill="#000101" transform="translate(94,40)"/>
      <path d="M0 0 C15.18 0 30.36 0 46 0 C46 2.31 46 4.62 46 7 C42.04 7 38.08 7 34 7 C34.33 5.68 34.66 4.36 35 3 C34.16359985 3.05329468 34.16359985 3.05329468 33.31030273 3.10766602 C21.75903494 3.81842199 10.52919732 4.15114873 -1 3 C-0.67 2.01 -0.34 1.02 0 0 Z " fill="#101213" transform="translate(106,102)"/>
      <path d="M0 0 C5.28 0 10.56 0 16 0 C16.495 0.99 16.495 0.99 17 2 C19.02463255 2.65213292 19.02463255 2.65213292 21 3 C21 3.66 21 4.32 21 5 C7.47 5 -6.06 5 -20 5 C-20 4.34 -20 3.68 -20 3 C-13.73 2.67 -7.46 2.34 -1 2 C-0.67 1.34 -0.34 0.68 0 0 Z M-19 7 C-34.84 7 -50.68 7 -67 7 C-67 6.67 -67 6.34 -67 6 C-60.48585955 5.80669696 -53.97142764 5.62921988 -47.45654297 5.46289062 C-45.23899512 5.4043887 -43.02154078 5.34222559 -40.80419922 5.27636719 C-37.62224347 5.1824874 -34.44018685 5.10165674 -31.2578125 5.0234375 C-29.76400558 4.97514297 -29.76400558 4.97514297 -28.24002075 4.9258728 C-26.85881546 4.89561508 -26.85881546 4.89561508 -25.44970703 4.86474609 C-24.6369632 4.84253998 -23.82421936 4.82033386 -22.98684692 4.79745483 C-21 5 -21 5 -19 7 Z " fill="#9C9C9C" transform="translate(335,83)"/>
      <path d="M0 0 C1.65 0 3.3 0 5 0 C5 1.65 5 3.3 5 5 C-1.00562504 5.17098003 -7.01142001 5.33107644 -13.01757812 5.48217773 C-15.04987917 5.53470971 -17.08211278 5.58993765 -19.11425781 5.64819336 C-33.46517597 6.05710208 -47.66741971 5.84459534 -62 5 C-61.67 4.34 -61.34 3.68 -61 3 C-47.62359426 2.87757443 -34.34675129 3.07726164 -21 4 C-21 3.34 -21 2.68 -21 2 C-14.07 2 -7.14 2 0 2 C0 1.34 0 0.68 0 0 Z " fill="#000000" transform="translate(377,84)"/>
      <path d="M0 0 C10.89 0 21.78 0 33 0 C33 0.66 33 1.32 33 2 C35.64 1.67 38.28 1.34 41 1 C41 0.67 41 0.34 41 0 C51.23 0 61.46 0 72 0 C72 0.33 72 0.66 72 1 C64.41 1 56.82 1 49 1 C48.34 2.32 47.68 3.64 47 5 C36.44 5 25.88 5 15 5 C15 4.01 15 3.02 15 2 C10.05 1.67 5.1 1.34 0 1 C0 0.67 0 0.34 0 0 Z " fill="#ACADAE" transform="translate(299,99)"/>
      <path d="M0 0 C3.08203125 -0.5234375 3.08203125 -0.5234375 6.8125 -0.375 C7.79597412 -0.3450293 7.79597412 -0.3450293 8.79931641 -0.31445312 C10.86909195 -0.24115167 12.93286351 -0.1269847 15 0 C16.01731201 0.05945801 16.01731201 0.05945801 17.05517578 0.12011719 C21.04145695 0.36206191 25.02025933 0.66933905 29 1 C29.33 1 29.66 1 30 1 C35.33333333 1 40.66666667 1 46 1 C46 1.99 46 2.98 46 4 C34.81494839 4.83963615 23.71400269 5.1286409 12.5 5.0625 C10.98307443 5.05746416 9.4661472 5.05290501 7.94921875 5.04882812 C4.2994436 5.03801236 0.64973321 5.02086846 -3 5 C-1.69262695 2.53271484 -1.69262695 2.53271484 0 0 Z " fill="#000001" transform="translate(41,65)"/>
      <path d="M0 0 C5.61 0 11.22 0 17 0 C17 0.33 17 0.66 17 1 C22.445 1.495 22.445 1.495 28 2 C28 2.33 28 2.66 28 3 C52.09 3.33 76.18 3.66 101 4 C101 4.33 101 4.66 101 5 C73.61 5 46.22 5 18 5 C18 4.34 18 3.68 18 3 C16.0509375 3.2475 16.0509375 3.2475 14.0625 3.5 C9.34580713 4.0315638 4.74361065 4.07529541 0 4 C-0.33 3.34 -0.66 2.68 -1 2 C-0.67 1.34 -0.34 0.68 0 0 Z " fill="#040405" transform="translate(190,116)"/>
      <path d="M0 0 C19.47 0 38.94 0 59 0 C58.34 0.99 57.68 1.98 57 3 C54.4026766 3.43652494 52.05408299 3.65729982 49.4375 3.75 C48.6655127 3.78601318 47.89352539 3.82202637 47.09814453 3.85913086 C36.06425121 4.25666129 25.01673921 3.59032588 14 3 C14 2.67 14 2.34 14 2 C9.38 2 4.76 2 0 2 C0 1.34 0 0.68 0 0 Z M-2 2 C0 3 0 3 0 3 Z " fill="#030405" transform="translate(71,126)"/>
      <path d="M0 0 C5.28 0 10.56 0 16 0 C16 0.99 16 1.98 16 3 C15.34 3.66 14.68 4.32 14 5 C14.66 5.33 15.32 5.66 16 6 C16.33 5.01 16.66 4.02 17 3 C19.31 3 21.62 3 24 3 C24 4.32 24 5.64 24 7 C30.93 7.495 30.93 7.495 38 8 C37.67 8.66 37.34 9.32 37 10 C24.79 10 12.58 10 0 10 C-1 5 -1 5 0 0 Z " fill="#000000" transform="translate(190,104)"/>
      <path d="M0 0 C9.24 0 18.48 0 28 0 C28 0.66 28 1.32 28 2 C32.62 2 37.24 2 42 2 C42 2.33 42 2.66 42 3 C14.61 3 -12.78 3 -41 3 C-41 2.67 -41 2.34 -41 2 C-27.47 2 -13.94 2 0 2 C0 1.34 0 0.68 0 0 Z " fill="#898B8D" transform="translate(328,37)"/>
      <path d="M0 0 C15.84 0 31.68 0 48 0 C48 0.99 48 1.98 48 3 C46.35 3 44.7 3 43 3 C43 3.66 43 4.32 43 5 C34.75 5 26.5 5 18 5 C18 4.01 18 3.02 18 2 C12.06 1.67 6.12 1.34 0 1 C0 0.67 0 0.34 0 0 Z " fill="#171B1E" transform="translate(334,81)"/>
      <path d="M0 0 C4.91362116 0.64090711 9.80500633 0.97698554 14.75 1.25 C15.52134277 1.29358643 16.29268555 1.33717285 17.08740234 1.38208008 C18.93316824 1.48568381 20.77907058 1.58685188 22.625 1.6875 C22.625 2.0175 22.625 2.3475 22.625 2.6875 C9.26 3.6775 9.26 3.6775 -4.375 4.6875 C-4.375 5.0175 -4.375 5.3475 -4.375 5.6875 C-15.595 5.6875 -26.815 5.6875 -38.375 5.6875 C-38.375 4.6975 -38.375 3.7075 -38.375 2.6875 C-37.59374756 2.66768066 -36.81249512 2.64786133 -36.00756836 2.62744141 C-32.44222682 2.53174528 -28.87743558 2.42224661 -25.3125 2.3125 C-24.08337891 2.2815625 -22.85425781 2.250625 -21.58789062 2.21875 C-14.66526388 1.99483754 -6.6260775 -1.02223872 0 0 Z " fill="#646667" transform="translate(308.375,102.3125)"/>
      <path d="M0 0 C2.81256281 -0.02684312 5.62487241 -0.04676188 8.4375 -0.0625 C9.23994141 -0.07087891 10.04238281 -0.07925781 10.86914062 -0.08789062 C12.91295221 -0.0965143 14.95683902 -0.0522815 17 0 C17.33 0.33 17.66 0.66 18 1 C19.87096111 1.12344027 21.74650928 1.17792394 23.62133789 1.20532227 C24.82250748 1.22526749 26.02367706 1.24521271 27.26124573 1.26576233 C28.5685112 1.28247482 29.87577667 1.29918732 31.22265625 1.31640625 C32.56644847 1.33696958 33.91023412 1.35796588 35.25401306 1.37937927 C38.79674987 1.43466419 42.33954567 1.48404498 45.88238525 1.53222656 C49.4952115 1.58239487 53.10795172 1.63810525 56.72070312 1.69335938 C63.81372747 1.80101937 70.90682888 1.9024468 78 2 C78 2.33 78 2.66 78 3 C53.25 3.33 28.5 3.66 3 4 C2.67 4.66 2.34 5.32 2 6 C-2.95 5.67 -7.9 5.34 -13 5 C-13 4.67 -13 4.34 -13 4 C-7.06 3.505 -7.06 3.505 -1 3 C-0.67 2.01 -0.34 1.02 0 0 Z " fill="#060708" transform="translate(210,124)"/>
      <path d="M0 0 C7.59 0 15.18 0 23 0 C22.67 1.32 22.34 2.64 22 4 C12.77838022 5.1734927 3.65164679 5.11370415 -5.625 5.0625 C-7.21744651 5.05747395 -8.80989455 5.052913 -10.40234375 5.04882812 C-14.26826779 5.03791237 -18.13411653 5.02070895 -22 5 C-22 5.33 -22 5.66 -22 6 C-28.6 6 -35.2 6 -42 6 C-42 5.67 -42 5.34 -42 5 C-39.36 5 -36.72 5 -34 5 C-34 4.34 -34 3.68 -34 3 C-23.11 2.67 -12.22 2.34 -1 2 C-0.67 1.34 -0.34 0.68 0 0 Z " fill="#202121" transform="translate(316,111)"/>
      <path d="M0 0 C19.47 0 38.94 0 59 0 C59 0.33 59 0.66 59 1 C54.38 1.33 49.76 1.66 45 2 C45 2.66 45 3.32 45 4 C29.63440999 4.1396286 14.34503163 3.80661707 -1 3 C-0.67 2.01 -0.34 1.02 0 0 Z " fill="#232324" transform="translate(289,124)"/>
      <path d="M0 0 C0 0.66 0 1.32 0 2 C18.81 2 37.62 2 57 2 C57 2.33 57 2.66 57 3 C32.25 3 7.5 3 -18 3 C-18 3.66 -18 4.32 -18 5 C-22.29 5 -26.58 5 -31 5 C-31 4.01 -31 3.02 -31 2 C-27.52147832 1.65970492 -24.04210091 1.3290613 -20.5625 1 C-19.58861328 0.90460938 -18.61472656 0.80921875 -17.61132812 0.7109375 C-11.70951151 0.15825902 -5.92744322 -0.09807559 0 0 Z " fill="#909293" transform="translate(208,119)"/>
      <path d="M0 0 C13.86 0 27.72 0 42 0 C41.67 0.99 41.34 1.98 41 3 C27.14 3 13.28 3 -1 3 C-0.67 2.01 -0.34 1.02 0 0 Z " fill="#414141" transform="translate(36,52)"/>
      <path d="M0 0 C11.22 0 22.44 0 34 0 C34 1.32 34 2.64 34 4 C23.11 4 12.22 4 1 4 C0.67 2.68 0.34 1.36 0 0 Z " fill="#5A5B5C" transform="translate(118,120)"/>
      <path d="M0 0 C21.12 0 42.24 0 64 0 C64 0.99 64 1.98 64 3 C58.72 3 53.44 3 48 3 C48 3.66 48 4.32 48 5 C45.87561661 5.08078641 43.7503677 5.13909141 41.625 5.1875 C40.44164062 5.22230469 39.25828125 5.25710937 38.0390625 5.29296875 C36.53472656 5.14794922 36.53472656 5.14794922 35 5 C34.34 4.01 33.68 3.02 33 2 C30.45420623 1.66197325 28.13850914 1.5112053 25.5859375 1.48828125 C24.85629791 1.47033005 24.12665833 1.45237885 23.37490845 1.43388367 C21.04166465 1.37964868 18.70862686 1.34584438 16.375 1.3125 C14.79424208 1.27933838 13.21351139 1.2448498 11.6328125 1.20898438 C7.75535674 1.12391533 3.87796345 1.05716822 0 1 C0 0.67 0 0.34 0 0 Z " fill="#AEAFAF" transform="translate(23,63)"/>
      <path d="M0 0 C7.59 0 15.18 0 23 0 C23 2.31 23 4.62 23 7 C15.41 7.33 7.82 7.66 0 8 C-1 3 -1 3 0 0 Z " fill="#070809" transform="translate(190,94)"/>
      <path d="M0 0 C2.97583596 0.01183235 5.90583317 0.09902542 8.875 0.25 C9.70386719 0.27707031 10.53273437 0.30414063 11.38671875 0.33203125 C12.18464844 0.37199219 12.98257813 0.41195312 13.8046875 0.453125 C14.53671387 0.48567383 15.26874023 0.51822266 16.02294922 0.55175781 C18.48234047 1.10935751 19.43202723 2.06400206 21 4 C21 4.33 21 4.66 21 5 C4.17 5 -12.66 5 -30 5 C-30 4.67 -30 4.34 -30 4 C-22.08 3.505 -22.08 3.505 -14 3 C-14 2.67 -14 2.34 -14 2 C-12.60974609 1.90912109 -12.60974609 1.90912109 -11.19140625 1.81640625 C-9.39509766 1.69072266 -9.39509766 1.69072266 -7.5625 1.5625 C-5.77005859 1.44068359 -5.77005859 1.44068359 -3.94140625 1.31640625 C-1.11429756 1.32343886 -1.11429756 1.32343886 0 0 Z " fill="#ADAEAE" transform="translate(191,125)"/>
      <path d="M0 0 C14.19 0 28.38 0 43 0 C43.495 1.485 43.495 1.485 44 3 C29.48 3 14.96 3 0 3 C0 2.01 0 1.02 0 0 Z " fill="#45484A" transform="translate(272,111)"/>
      <path d="M0 0 C10.89 0 21.78 0 33 0 C33 1.65 33 3.3 33 5 C18.48 5.33 3.96 5.66 -11 6 C-11 5.34 -11 4.68 -11 4 C-4.4 4 2.2 4 9 4 C9 3.01 9 2.02 9 1 C4.545 1.495 4.545 1.495 0 2 C0 1.34 0 0.68 0 0 Z " fill="#030404" transform="translate(119,112)"/>
      <path d="M0 0 C6.27 0 12.54 0 19 0 C19 0.33 19 0.66 19 1 C22.3 1.33 25.6 1.66 29 2 C29 2.33 29 2.66 29 3 C34.94 3.33 40.88 3.66 47 4 C47 4.33 47 4.66 47 5 C31.34669095 6.2853157 15.69164073 6.10024144 0 6 C-1.125 2.25 -1.125 2.25 0 0 Z " fill="#101112" transform="translate(160,78)"/>
      <path d="M0 0 C6.27 0 12.54 0 19 0 C18.01 1.485 18.01 1.485 17 3 C17.66 3.33 18.32 3.66 19 4 C19 3.34 19 2.68 19 2 C24.61 2 30.22 2 36 2 C36 2.99 36 3.98 36 5 C23.56664001 6.14309533 11.44653437 5.80060118 -1 5 C-0.67 3.35 -0.34 1.7 0 0 Z " fill="#050608" transform="translate(35,78)"/>
      <path d="M0 0 C7.59 0 15.18 0 23 0 C23 1.32 23 2.64 23 4 C8.81 4 -5.38 4 -20 4 C-20 3.67 -20 3.34 -20 3 C-13.73 2.67 -7.46 2.34 -1 2 C-0.67 1.34 -0.34 0.68 0 0 Z " fill="#292C2F" transform="translate(359,114)"/>
      <path d="M0 0 C1.084021 0.00523682 2.16804199 0.01047363 3.28491211 0.01586914 C5.03964844 0.02070312 5.03964844 0.02070312 6.82983398 0.02563477 C8.0615332 0.03401367 9.29323242 0.04239258 10.56225586 0.05102539 C12.41560547 0.05779297 12.41560547 0.05779297 14.30639648 0.06469727 C17.37089703 0.07652931 20.43530307 0.09301366 23.49975586 0.11352539 C23.49975586 0.77352539 23.49975586 1.43352539 23.49975586 2.11352539 C31.41975586 2.11352539 39.33975586 2.11352539 47.49975586 2.11352539 C47.49975586 2.44352539 47.49975586 2.77352539 47.49975586 3.11352539 C28.35975586 3.11352539 9.21975586 3.11352539 -10.50024414 3.11352539 C-10.50024414 2.78352539 -10.50024414 2.45352539 -10.50024414 2.11352539 C-9.36586914 1.96915039 -8.23149414 1.82477539 -7.06274414 1.67602539 C-3.78566433 1.15859174 -3.04145065 0.13809926 0 0 Z " fill="#696B6D" transform="translate(307.500244140625,106.886474609375)"/>
      <path d="M0 0 C11.88 0 23.76 0 36 0 C36 0.99 36 1.98 36 3 C24.12 3 12.24 3 0 3 C0 2.01 0 1.02 0 0 Z " fill="#0C0E0F" transform="translate(0,46)"/>
      <path d="M0 0 C11.88 0 23.76 0 36 0 C36 0.99 36 1.98 36 3 C24.12 3 12.24 3 0 3 C0 2.01 0 1.02 0 0 Z " fill="#0C0E0F" transform="translate(0,42)"/>
      <path d="M0 0 C10.89 0 21.78 0 33 0 C33 1.65 33 3.3 33 5 C22.77 5 12.54 5 2 5 C1.34 3.35 0.68 1.7 0 0 Z " fill="#282E33" transform="translate(349,119)"/>
      <path d="M0 0 C1.08330345 0.01441132 1.08330345 0.01441132 2.18849182 0.02911377 C4.57473558 0.06208501 6.96079519 0.1024244 9.34692383 0.14282227 C11.00172782 0.16712522 12.65653861 0.19096869 14.31135559 0.21437073 C18.66632848 0.27719422 23.02118082 0.34626579 27.3760376 0.41662598 C31.82005322 0.48732507 36.26415429 0.55213261 40.70825195 0.61743164 C49.42774761 0.74642163 58.14712475 0.88201049 66.86645508 1.02172852 C66.86645508 1.35172852 66.86645508 1.68172852 66.86645508 2.02172852 C65.22447144 2.05931274 65.22447144 2.05931274 63.54931641 2.09765625 C59.47710024 2.19202859 55.40504282 2.29217582 51.33300781 2.39404297 C49.572629 2.43727921 47.8122113 2.47896202 46.05175781 2.51904297 C43.51721494 2.57702037 40.98286574 2.64063478 38.44848633 2.70532227 C37.27320122 2.73039101 37.27320122 2.73039101 36.07417297 2.75596619 C32.23322957 2.85943658 28.60466386 3.10751035 24.86645508 4.02172852 C24.86645508 3.69172852 24.86645508 3.36172852 24.86645508 3.02172852 C13.31645508 3.02172852 1.76645508 3.02172852 -10.13354492 3.02172852 C-10.13354492 2.36172852 -10.13354492 1.70172852 -10.13354492 1.02172852 C-6.55609761 -0.17075392 -3.77671127 -0.05770866 0 0 Z M-17.13354492 3.02172852 C-14.82354492 3.02172852 -12.51354492 3.02172852 -10.13354492 3.02172852 C-10.13354492 3.35172852 -10.13354492 3.68172852 -10.13354492 4.02172852 C-12.44354492 4.35172852 -14.75354492 4.68172852 -17.13354492 5.02172852 C-17.13354492 4.36172852 -17.13354492 3.70172852 -17.13354492 3.02172852 Z " fill="#060809" transform="translate(193.133544921875,60.978271484375)"/>
      <path d="M0 0 C10.89 0 21.78 0 33 0 C33 0.33 33 0.66 33 1 C28.38 1 23.76 1 19 1 C19 1.66 19 2.32 19 3 C25.93 3.495 25.93 3.495 33 4 C33 4.33 33 4.66 33 5 C21.78 5 10.56 5 -1 5 C-0.67 3.35 -0.34 1.7 0 0 Z " fill="#98999A" transform="translate(119,125)"/>
      <path d="M0 0 C12.21 0 24.42 0 37 0 C36.67 0.99 36.34 1.98 36 3 C27.42 3 18.84 3 10 3 C10 3.99 10 4.98 10 6 C4.62694301 6.35233161 4.62694301 6.35233161 2 6 C0 4 0 4 -1 2 C-0.67 1.34 -0.34 0.68 0 0 Z " fill="#090B0C" transform="translate(260,104)"/>
      <path d="M0 0 C2.31 0 4.62 0 7 0 C6.67 0.99 6.34 1.98 6 3 C5.00097656 3.04898438 4.00195312 3.09796875 2.97265625 3.1484375 C1.68230469 3.22320312 0.39195312 3.29796875 -0.9375 3.375 C-2.22527344 3.44460937 -3.51304687 3.51421875 -4.83984375 3.5859375 C-5.88269531 3.72257812 -6.92554688 3.85921875 -8 4 C-8.33 4.66 -8.66 5.32 -9 6 C-20.385 5.505 -20.385 5.505 -32 5 C-31.34 4.67 -30.68 4.34 -30 4 C-30 3.34 -30 2.68 -30 2 C-20.1 2 -10.2 2 0 2 C0 1.34 0 0.68 0 0 Z " fill="#141618" transform="translate(169,62)"/>
      <path d="M0 0 C11.22 0 22.44 0 34 0 C34 0.99 34 1.98 34 3 C28.49992848 3.9289665 23.19749579 4.15170525 17.625 4.125 C16.82578125 4.12886719 16.0265625 4.13273437 15.203125 4.13671875 C9.73081602 4.12786388 4.42933046 3.68546657 -1 3 C-0.67 2.01 -0.34 1.02 0 0 Z " fill="#141617" transform="translate(103,82)"/>
      <path d="M0 0 C5.61 0 11.22 0 17 0 C17 0.66 17 1.32 17 2 C20.3 2 23.6 2 27 2 C27 2.99 27 3.98 27 5 C21.13962379 6.13708792 15.96470799 5.78512775 10.0625 5.0625 C8.75055664 4.91264648 8.75055664 4.91264648 7.41210938 4.75976562 C5.27382086 4.51438825 3.13676714 4.25829053 1 4 C1.33 3.01 1.66 2.02 2 1 C1.34 0.67 0.68 0.34 0 0 Z " fill="#272A2D" transform="translate(35,123)"/>
      <path d="M0 0 C0.33 0.66 0.66 1.32 1 2 C8.92 2 16.84 2 25 2 C25 3.65 25 5.3 25 7 C6.17995444 8.33257403 6.17995444 8.33257403 -3 7 C-2.01 4.69 -1.02 2.38 0 0 Z " fill="#030405" transform="translate(37,94)"/>
      <path d="M0 0 C0.80566406 0.00322266 1.61132812 0.00644531 2.44140625 0.00976562 C3.70404297 0.02233398 3.70404297 0.02233398 4.9921875 0.03515625 C5.84167969 0.03966797 6.69117188 0.04417969 7.56640625 0.04882812 C9.66669659 0.06062751 11.7669508 0.07856319 13.8671875 0.09765625 C13.5371875 1.08765625 13.2071875 2.07765625 12.8671875 3.09765625 C-6.6028125 3.09765625 -26.0728125 3.09765625 -46.1328125 3.09765625 C-46.1328125 2.76765625 -46.1328125 2.43765625 -46.1328125 2.09765625 C-44.93156738 2.0726001 -43.73032227 2.04754395 -42.49267578 2.02172852 C-38.04594821 1.92772481 -33.59937943 1.82748708 -29.15283203 1.7253418 C-27.22643746 1.68196624 -25.30000379 1.64029311 -23.37353516 1.6003418 C-20.60827842 1.54270263 -17.843219 1.47899009 -15.078125 1.4140625 C-14.2134964 1.39735001 -13.3488678 1.38063751 -12.45803833 1.36341858 C-8.0473732 1.25354722 -4.31781814 -0.03040717 0 0 Z " fill="#8A8C8D" transform="translate(337.1328125,40.90234375)"/>
      <path d="M0 0 C15.51 0 31.02 0 47 0 C46.67 0.99 46.34 1.98 46 3 C41.71 3 37.42 3 33 3 C33 2.34 33 1.68 33 1 C30.35375716 1.14021805 27.70815422 1.28689776 25.0625 1.4375 C23.93038086 1.49647461 23.93038086 1.49647461 22.77539062 1.55664062 C19.08055813 1.44038024 19.08055813 1.44038024 16 3 C13.13732433 3.07325168 10.299281 3.09238205 7.4375 3.0625 C6.63119141 3.05798828 5.82488281 3.05347656 4.99414062 3.04882812 C2.99606244 3.03700518 0.99802217 3.01906914 -1 3 C-0.67 2.01 -0.34 1.02 0 0 Z " fill="#000000" transform="translate(179,66)"/>
      <path d="M0 0 C1.79244141 0.00676758 1.79244141 0.00676758 3.62109375 0.01367188 C6.53911647 0.02534397 9.45703037 0.04171674 12.375 0.0625 C12.375 0.3925 12.375 0.7225 12.375 1.0625 C14.85 1.5575 14.85 1.5575 17.375 2.0625 C17.375 2.3925 17.375 2.7225 17.375 3.0625 C13.14323299 3.08749226 8.91150677 3.10549623 4.6796875 3.11743164 C3.24445852 3.12241507 1.80923449 3.12920425 0.37402344 3.13793945 C-7.67600017 3.18565577 -15.62783763 3.13111751 -23.625 2.0625 C-23.625 1.7325 -23.625 1.4025 -23.625 1.0625 C-15.73349953 0.06224837 -7.94697932 -0.05758681 0 0 Z " fill="#707172" transform="translate(206.625,62.9375)"/>
      <path d="M0 0 C10.23 0 20.46 0 31 0 C30.67 0.99 30.34 1.98 30 3 C20.1 3 10.2 3 0 3 C0 2.01 0 1.02 0 0 Z " fill="#000002" transform="translate(0,38)"/>
      <path d="M0 0 C1.39456452 0.00667256 2.78911118 0.01863093 4.18359375 0.03515625 C5.2499707 0.04192383 5.2499707 0.04192383 6.33789062 0.04882812 C8.09899388 0.06064761 9.86005411 0.07858362 11.62109375 0.09765625 C11.62109375 0.42765625 11.62109375 0.75765625 11.62109375 1.09765625 C19.21109375 1.42765625 26.80109375 1.75765625 34.62109375 2.09765625 C34.62109375 2.42765625 34.62109375 2.75765625 34.62109375 3.09765625 C14.16109375 3.09765625 -6.29890625 3.09765625 -27.37890625 3.09765625 C-27.37890625 2.76765625 -27.37890625 2.43765625 -27.37890625 2.09765625 C-26.68740479 2.0726001 -25.99590332 2.04754395 -25.28344727 2.02172852 C-22.16922759 1.90613464 -19.05533836 1.78324383 -15.94140625 1.66015625 C-14.30848633 1.60118164 -14.30848633 1.60118164 -12.64257812 1.54101562 C-11.60810547 1.49912109 -10.57363281 1.45722656 -9.5078125 1.4140625 C-8.5494751 1.37740479 -7.5911377 1.34074707 -6.60375977 1.30297852 C-3.44110207 1.01111029 -3.60396666 0.10416089 0 0 Z " fill="#A2A3A4" transform="translate(75.37890625,126.90234375)"/>
      <path d="M0 0 C16.17 0 32.34 0 49 0 C49 0.33 49 0.66 49 1 C47.82904785 1.02505615 46.6580957 1.0501123 45.45166016 1.07592773 C41.11674622 1.16993703 36.78199496 1.27017341 32.44726562 1.37231445 C30.56937458 1.41568789 28.69144348 1.45736118 26.81347656 1.49731445 C24.1177156 1.55495876 21.42215673 1.61866981 18.7265625 1.68359375 C17.88380768 1.70030624 17.04105286 1.71701874 16.17276001 1.73423767 C11.9513339 1.73236144 11.9513339 1.73236144 8 3 C5.82325217 3.15469367 3.6421652 3.25002106 1.4609375 3.31640625 C-0.49199219 3.37924805 -0.49199219 3.37924805 -2.484375 3.44335938 C-3.86458045 3.48317299 -5.24478883 3.52288522 -6.625 3.5625 C-8.01303415 3.60569407 -9.40105528 3.64930865 -10.7890625 3.69335938 C-14.19260256 3.79972 -17.59621778 3.90174714 -21 4 C-21 3.34 -21 2.68 -21 2 C-14.07 2 -7.14 2 0 2 C0 1.34 0 0.68 0 0 Z " fill="#010102" transform="translate(289,98)"/>
      <path d="M0 0 C4.62 0 9.24 0 14 0 C14 1.32 14 2.64 14 4 C10.04 4 6.08 4 2 4 C1.34 2.68 0.68 1.36 0 0 Z M-10 1 C-8.54257537 0.91903197 -7.08387193 0.86082226 -5.625 0.8125 C-4.81289063 0.77769531 -4.00078125 0.74289063 -3.1640625 0.70703125 C-2.44992187 0.80371094 -1.73578125 0.90039062 -1 1 C-0.34 1.99 0.32 2.98 1 4 C-9.23 4 -19.46 4 -30 4 C-30 3.67 -30 3.34 -30 3 C-20.1 2.505 -20.1 2.505 -10 2 C-10 1.67 -10 1.34 -10 1 Z " fill="#67696B" transform="translate(368,52)"/>
      <path d="M0 0 C15.51 0 31.02 0 47 0 C47 0.99 47 1.98 47 3 C31.32295263 2.49912043 15.65510282 1.98499308 0 1 C0 0.67 0 0.34 0 0 Z " fill="#1B1C1E" transform="translate(335,126)"/>
      <path d="M0 0 C8.58 0 17.16 0 26 0 C26 0.99 26 1.98 26 3 C20.39 3 14.78 3 9 3 C9 3.66 9 4.32 9 5 C5.37 5 1.74 5 -2 5 C-1.34 3.35 -0.68 1.7 0 0 Z " fill="#8B8D8E" transform="translate(45,77)"/>
      <path d="M0 0 C1.28132813 0.00902344 2.56265625 0.01804687 3.8828125 0.02734375 C5.36394531 0.04474609 5.36394531 0.04474609 6.875 0.0625 C6.875 1.0525 6.875 2.0425 6.875 3.0625 C-9.955 3.0625 -26.785 3.0625 -44.125 3.0625 C-44.125 2.7325 -44.125 2.4025 -44.125 2.0625 C-43.07521973 2.03744385 -42.02543945 2.0123877 -40.94384766 1.98657227 C-37.05618676 1.89253733 -33.16870619 1.7923072 -29.28125 1.69018555 C-27.59737358 1.64682183 -25.91345277 1.6051478 -24.22949219 1.56518555 C-21.81171276 1.50751766 -19.39415705 1.4438135 -16.9765625 1.37890625 C-16.2213028 1.36219376 -15.46604309 1.34548126 -14.68789673 1.32826233 C-9.54498048 1.18184465 -5.22299939 -0.04748181 0 0 Z " fill="#7D7F80" transform="translate(375.125,76.9375)"/>
      <path d="M0 0 C6.27 0 12.54 0 19 0 C19 0.33 19 0.66 19 1 C9.595 1.495 9.595 1.495 0 2 C0 1.34 0 0.68 0 0 Z M-21 2 C-14.07 2 -7.14 2 0 2 C-0.99 3.485 -0.99 3.485 -2 5 C-4.79736328 5.34057617 -4.79736328 5.34057617 -8.3203125 5.29296875 C-9.57714844 5.28330078 -10.83398438 5.27363281 -12.12890625 5.26367188 C-13.44761719 5.23853516 -14.76632813 5.21339844 -16.125 5.1875 C-17.46482903 5.17245483 -18.80467404 5.15876613 -20.14453125 5.14648438 C-23.43008842 5.11102872 -26.71484582 5.06160849 -30 5 C-30 4.67 -30 4.34 -30 4 C-27.03 4 -24.06 4 -21 4 C-21 3.34 -21 2.68 -21 2 Z " fill="#000001" transform="translate(190,124)"/>
      <path d="M0 0 C7.92 0 15.84 0 24 0 C24 0.66 24 1.32 24 2 C21.44276771 3.27861615 19.63262898 3.11336609 16.7734375 3.09765625 C15.7421875 3.09443359 14.7109375 3.09121094 13.6484375 3.08789062 C12.02808594 3.07532227 12.02808594 3.07532227 10.375 3.0625 C8.74304688 3.05573242 8.74304688 3.05573242 7.078125 3.04882812 C4.38536211 3.03701776 1.69270812 3.02054778 -1 3 C-0.67 2.01 -0.34 1.02 0 0 Z " fill="#0B0D0F" transform="translate(350,42)"/>
      <path d="M0 0 C4.95 0 9.9 0 15 0 C15.33 0.99 15.66 1.98 16 3 C10.39 3 4.78 3 -1 3 C-0.67 2.01 -0.34 1.02 0 0 Z M-2 3 C4.27 3.33 10.54 3.66 17 4 C17 4.33 17 4.66 17 5 C10.4 5 3.8 5 -3 5 C-2.67 4.34 -2.34 3.68 -2 3 Z " fill="#161B1F" transform="translate(41,65)"/>
      <path d="M0 0 C1.48831242 0.00667405 2.97660807 0.01863442 4.46484375 0.03515625 C5.22345703 0.03966797 5.98207031 0.04417969 6.76367188 0.04882812 C8.64326246 0.06064945 10.52281274 0.07858547 12.40234375 0.09765625 C12.40234375 1.08765625 12.40234375 2.07765625 12.40234375 3.09765625 C0.85234375 3.09765625 -10.69765625 3.09765625 -22.59765625 3.09765625 C-22.59765625 2.76765625 -22.59765625 2.43765625 -22.59765625 2.09765625 C-21.30988281 2.03707031 -20.02210938 1.97648437 -18.6953125 1.9140625 C-17.01691466 1.82967378 -15.33852989 1.74502495 -13.66015625 1.66015625 C-12.38495117 1.60118164 -12.38495117 1.60118164 -11.08398438 1.54101562 C-10.27509766 1.49912109 -9.46621094 1.45722656 -8.6328125 1.4140625 C-7.50951538 1.35907593 -7.50951538 1.35907593 -6.36352539 1.30297852 C-3.29587183 0.94629434 -3.84817896 0.10445654 0 0 Z " fill="#757778" transform="translate(199.59765625,66.90234375)"/>
      <path d="M0 0 C15.84 0 31.68 0 48 0 C48 0.99 48 1.98 48 3 C41.25 3.125 41.25 3.125 39 2 C36.0851463 1.84279903 33.19060364 1.74144346 30.2734375 1.68359375 C29.41062164 1.66281265 28.54780579 1.64203156 27.65884399 1.62062073 C24.89764507 1.55513966 22.13634962 1.49624702 19.375 1.4375 C17.50519828 1.3943134 15.63540638 1.35069907 13.765625 1.30664062 C9.17718272 1.19945976 4.58864317 1.09818825 0 1 C0 0.67 0 0.34 0 0 Z " fill="#737578" transform="translate(334,81)"/>
      <path d="M0 0 C12.71460452 -0.11427673 25.32056251 -0.01726146 38 1 C38 1.33 38 1.66 38 2 C24.91424998 3.1280819 12.10129443 2.80614913 -1 2 C-0.67 1.34 -0.34 0.68 0 0 Z " fill="#0C0E10" transform="translate(316,87)"/>
      <path d="M0 0 C8.91 0 17.82 0 27 0 C26.67 0.99 26.34 1.98 26 3 C22.79168609 3.0292483 19.58340693 3.04688189 16.375 3.0625 C15.01955078 3.07506836 15.01955078 3.07506836 13.63671875 3.08789062 C8.97095711 3.10491895 4.58986715 2.96829423 0 2 C0 1.34 0 0.68 0 0 Z M-2 2 C0 3 0 3 0 3 Z " fill="#000102" transform="translate(304,100)"/>
      <path d="M0 0 C3.3 0 6.6 0 10 0 C10.33 0.99 10.66 1.98 11 3 C10.67 3.66 10.34 4.32 10 5 C3.73 5 -2.54 5 -9 5 C-8.67 4.01 -8.34 3.02 -8 2 C-5.36 2 -2.72 2 0 2 C0 1.34 0 0.68 0 0 Z " fill="#040505" transform="translate(109,66)"/>
      <path d="M0 0 C0.84755859 0.00410889 1.69511719 0.00821777 2.56835938 0.01245117 C3.509375 0.01438477 4.45039062 0.01631836 5.41992188 0.01831055 C6.40734375 0.03055664 7.39476563 0.04280273 8.41210938 0.05541992 C9.36859375 0.05606445 10.32507813 0.05670898 11.31054688 0.05737305 C17.56345217 0.09550052 23.70368835 0.50426742 29.91210938 1.24291992 C29.91210938 1.57291992 29.91210938 1.90291992 29.91210938 2.24291992 C18.45006528 3.10522648 7.36556186 3.25719024 -4.08789062 2.24291992 C-2.08789062 0.24291992 -2.08789062 0.24291992 0 0 Z " fill="#454546" transform="translate(98.087890625,126.757080078125)"/>
      <path d="M0 0 C4.29 0 8.58 0 13 0 C13 1.32 13 2.64 13 4 C11.39773045 4.22245393 9.79303233 4.42746669 8.1875 4.625 C7.29417969 4.74101563 6.40085937 4.85703125 5.48046875 4.9765625 C3 5 3 5 0 3 C0 2.01 0 1.02 0 0 Z " fill="#696969" transform="translate(369,37)"/>
      <path d="M0 0 C5.28 0 10.56 0 16 0 C16 0.99 16 1.98 16 3 C13.14206684 5.85793316 10.85334416 5.40799941 6.875 5.625 C5.59367188 5.69976562 4.31234375 5.77453125 2.9921875 5.8515625 C2.00476563 5.90054688 1.01734375 5.94953125 0 6 C-1.125 2.25 -1.125 2.25 0 0 Z " fill="#000000" transform="translate(190,104)"/>
      <path d="M0 0 C1.98 0 3.96 0 6 0 C5.67 0.99 5.34 1.98 5 3 C9.29 3.33 13.58 3.66 18 4 C18 3.34 18 2.68 18 2 C20.97 2 23.94 2 27 2 C27 2.99 27 3.98 27 5 C17.76 5 8.52 5 -1 5 C-0.67 3.35 -0.34 1.7 0 0 Z " fill="#000000" transform="translate(125,90)"/>
      <path d="M0 0 C1.39456452 0.00667256 2.78911118 0.01863093 4.18359375 0.03515625 C4.89451172 0.03966797 5.60542969 0.04417969 6.33789062 0.04882812 C8.09899388 0.06064761 9.86005411 0.07858362 11.62109375 0.09765625 C11.62109375 0.42765625 11.62109375 0.75765625 11.62109375 1.09765625 C9.31109375 1.09765625 7.00109375 1.09765625 4.62109375 1.09765625 C4.62109375 1.75765625 4.62109375 2.41765625 4.62109375 3.09765625 C1.98109375 3.42765625 -0.65890625 3.75765625 -3.37890625 4.09765625 C-3.37890625 4.42765625 -3.37890625 4.75765625 -3.37890625 5.09765625 C-6.34890625 5.09765625 -9.31890625 5.09765625 -12.37890625 5.09765625 C-12.04890625 4.10765625 -11.71890625 3.11765625 -11.37890625 2.09765625 C-10.24453125 1.95328125 -9.11015625 1.80890625 -7.94140625 1.66015625 C-4.10245101 1.05400542 -3.82424928 0.11052744 0 0 Z " fill="#626567" transform="translate(164.37890625,124.90234375)"/>
      <path d="M0 0 C13.53 0 27.06 0 41 0 C41 0.33 41 0.66 41 1 C39.35801636 1.03758423 39.35801636 1.03758423 37.68286133 1.07592773 C33.61064517 1.17030008 29.53858774 1.27044731 25.46655273 1.37231445 C23.70617392 1.41555069 21.94575622 1.4572335 20.18530273 1.49731445 C17.65075987 1.55529185 15.11641066 1.61890627 12.58203125 1.68359375 C11.40674614 1.70866249 11.40674614 1.70866249 10.2077179 1.73423767 C6.3667745 1.83770807 2.73820878 2.08578184 -1 3 C-0.67 2.01 -0.34 1.02 0 0 Z " fill="#000000" transform="translate(219,62)"/>
      <path d="M0 0 C5.28 0 10.56 0 16 0 C16 0.66 16 1.32 16 2 C12.93466836 3.53266582 9.73245728 3.10276471 6.375 3.0625 C5.66859375 3.05798828 4.9621875 3.05347656 4.234375 3.04882812 C2.48954725 3.03703875 0.744763 3.01910324 -1 3 C-0.67 2.01 -0.34 1.02 0 0 Z " fill="#0B0D0E" transform="translate(179,66)"/>
      <path d="M0 0 C1.98 0 3.96 0 6 0 C6 1.65 6 3.3 6 5 C0.39 5 -5.22 5 -11 5 C-11 4.67 -11 4.34 -11 4 C-7.7 3.67 -4.4 3.34 -1 3 C-0.67 2.01 -0.34 1.02 0 0 Z " fill="#3E4144" transform="translate(376,45)"/>
      <path d="M0 0 C5.28 0 10.56 0 16 0 C16 0.99 16 1.98 16 3 C10.22240116 3.12036664 4.72040011 2.8320582 -1 2 C-0.67 1.34 -0.34 0.68 0 0 Z " fill="#5C5E5F" transform="translate(55,111)"/>
      <path d="M0 0 C-0.33 0.99 -0.66 1.98 -1 3 C-7.27 2.67 -13.54 2.34 -20 2 C-20 1.67 -20 1.34 -20 1 C-6.3667426 -0.14806378 -6.3667426 -0.14806378 0 0 Z " fill="#57575A" transform="translate(197,126)"/>
      <path d="M0 0 C4.95 0 9.9 0 15 0 C15 0.99 15 1.98 15 3 C12.03 3 9.06 3 6 3 C6 2.34 6 1.68 6 1 C4.02 1 2.04 1 0 1 C0 0.67 0 0.34 0 0 Z " fill="#6D6E6F" transform="translate(72,51)"/>
      <path d="M0 0 C1.32 0 2.64 0 4 0 C4 0.99 4 1.98 4 3 C-3.92 3 -11.84 3 -20 3 C-20 2.67 -20 2.34 -20 2 C-19.42967041 1.97494385 -18.85934082 1.9498877 -18.27172852 1.92407227 C-15.70173843 1.80843451 -13.13214473 1.68556376 -10.5625 1.5625 C-9.66466797 1.52318359 -8.76683594 1.48386719 -7.84179688 1.44335938 C-6.98779297 1.40146484 -6.13378906 1.35957031 -5.25390625 1.31640625 C-4.46314697 1.27974854 -3.6723877 1.24309082 -2.85766602 1.20532227 C-0.98598559 1.19436743 -0.98598559 1.19436743 0 0 Z " fill="#474C4F" transform="translate(378,85)"/>
      <path d="M0 0 C5.28 0 10.56 0 16 0 C13.14206684 2.85793316 10.85334416 2.40799941 6.875 2.625 C5.59367187 2.69976562 4.31234375 2.77453125 2.9921875 2.8515625 C2.00476563 2.90054688 1.01734375 2.94953125 0 3 C0 2.01 0 1.02 0 0 Z " fill="#717272" transform="translate(335,83)"/>
      <path d="M0 0 C2.31 0 4.62 0 7 0 C6.67 0.99 6.34 1.98 6 3 C1.05 3.33 -3.9 3.66 -9 4 C-9 3.34 -9 2.68 -9 2 C-6.03 2 -3.06 2 0 2 C0 1.34 0 0.68 0 0 Z " fill="#000002" transform="translate(169,62)"/>
      <path d="M0 0 C5.61 0 11.22 0 17 0 C17 0.99 17 1.98 17 3 C15.54364629 3.22174933 14.08477044 3.42698698 12.625 3.625 C11.81289062 3.74101563 11.00078125 3.85703125 10.1640625 3.9765625 C9.44992188 3.98429687 8.73578125 3.99203125 8 4 C7.34 3.34 6.68 2.68 6 2 C4.01178687 1.60235737 2.01055661 1.26224651 0 1 C0 0.67 0 0.34 0 0 Z " fill="#000000" transform="translate(54,80)"/>
      <path d="M0 0 C3.63 0.33 7.26 0.66 11 1 C11 1.66 11 2.32 11 3 C7.04 3 3.08 3 -1 3 C-0.67 2.01 -0.34 1.02 0 0 Z " fill="#47494B" transform="translate(132,91)"/>
      <path d="M0 0 C2.97 0 5.94 0 9 0 C9 0.66 9 1.32 9 2 C6.59454362 3.20272819 5.05003047 3.10071472 2.375 3.0625 C1.14910156 3.04896484 1.14910156 3.04896484 -0.1015625 3.03515625 C-1.04128906 3.01775391 -1.04128906 3.01775391 -2 3 C-1.34 2.67 -0.68 2.34 0 2 C0 1.34 0 0.68 0 0 Z " fill="#444444" transform="translate(62,126)"/>
      <path d="M0 0 C3.3 0 6.6 0 10 0 C9.67 0.99 9.34 1.98 9 3 C6.36 3 3.72 3 1 3 C0.67 2.01 0.34 1.02 0 0 Z " fill="#787979" transform="translate(273,113)"/>
      <path d="M0 0 C-2.44876181 2.44876181 -3.59672458 2.57755717 -7 3 C-9.27401002 2.9173572 -11.54633382 2.76851511 -13.8125 2.5625 C-14.97394531 2.46066406 -16.13539062 2.35882813 -17.33203125 2.25390625 C-18.21246094 2.17011719 -19.09289063 2.08632812 -20 2 C-20 1.67 -20 1.34 -20 1 C-13.31184516 0.37577221 -6.71884955 -0.12920865 0 0 Z " fill="#0D0F10" transform="translate(62,81)"/>
      <path d="M0 0 C2.64 0 5.28 0 8 0 C8 0.99 8 1.98 8 3 C5.03 3 2.06 3 -1 3 C-0.67 2.01 -0.34 1.02 0 0 Z " fill="#949495" transform="translate(120,113)"/>
      <path d="M0 0 C2.64 0 5.28 0 8 0 C8 0.99 8 1.98 8 3 C5.36 3 2.72 3 0 3 C0 2.01 0 1.02 0 0 Z M-2 3 C0 4 0 4 0 4 Z " fill="#898989" transform="translate(374,41)"/>
      <path d="M0 0 C0.91007812 0.00902344 1.82015625 0.01804688 2.7578125 0.02734375 C3.45648438 0.03894531 4.15515625 0.05054688 4.875 0.0625 C4.875 0.7225 4.875 1.3825 4.875 2.0625 C3.25175914 2.28412329 1.626279 2.48939803 0 2.6875 C-1.35738281 2.86152344 -1.35738281 2.86152344 -2.7421875 3.0390625 C-3.52851563 3.04679687 -4.31484375 3.05453125 -5.125 3.0625 C-5.785 2.4025 -6.445 1.7425 -7.125 1.0625 C-4.60024538 -0.19987731 -2.81299534 -0.03606404 0 0 Z " fill="#636364" transform="translate(377.125,38.9375)"/>
      <path d="M0 0 C2.31 0 4.62 0 7 0 C7 0.99 7 1.98 7 3 C4.36 3 1.72 3 -1 3 C-0.67 2.01 -0.34 1.02 0 0 Z " fill="#15191D" transform="translate(207,107)"/>
      <path d="M0 0 C3.3 0 6.6 0 10 0 C10 0.99 10 1.98 10 3 C6.7 3.33 3.4 3.66 0 4 C-0.33 3.34 -0.66 2.68 -1 2 C-0.67 1.34 -0.34 0.68 0 0 Z " fill="#000001" transform="translate(119,76)"/>
      <path d="M0 0 C1.98 0 3.96 0 6 0 C6 0.99 6 1.98 6 3 C4.02 3 2.04 3 0 3 C0 2.01 0 1.02 0 0 Z " fill="#828282" transform="translate(376,45)"/>
      <path d="M0 0 C2.875 -0.1875 2.875 -0.1875 6 0 C6.66 0.99 7.32 1.98 8 3 C5.03 3 2.06 3 -1 3 C-0.67 2.01 -0.34 1.02 0 0 Z " fill="#0F1217" transform="translate(88,39)"/>
      <path d="M0 0 C1.32 0 2.64 0 4 0 C4 1.32 4 2.64 4 4 C2.35 4 0.7 4 -1 4 C-1.33 3.34 -1.66 2.68 -2 2 C-1.34 2 -0.68 2 0 2 C0 1.34 0 0.68 0 0 Z " fill="#525253" transform="translate(378,120)"/>
      <path d="M0 0 C1.98 0 3.96 0 6 0 C6 0.66 6 1.32 6 2 C3.69 2.33 1.38 2.66 -1 3 C-0.67 2.01 -0.34 1.02 0 0 Z " fill="#000003" transform="translate(56,126)"/>
      <path d="M0 0 C0 1.32 0 2.64 0 4 C-2.31 4 -4.62 4 -7 4 C-3.375 0 -3.375 0 0 0 Z " fill="#656566" transform="translate(382,62)"/>
</svg>
